<svg width="20" height="20" viewBox="0 0 20 20" fill="none" xmlns="http://www.w3.org/2000/svg">
<path d="M9.69353 17.9124L9.69565 17.9083L9.69353 17.9062L9.69141 17.9124H9.69353Z" fill="#141414"/>
<path d="M9.69353 17.9124L9.69565 17.9083L9.69353 17.9062L9.69141 17.9124H9.69353Z" fill="#141414"/>
<path d="M10.1517 18.6944L10.1338 18.6641C10.1338 18.6641 10.1436 18.6807 10.1517 18.6944Z" fill="#141414"/>
<path d="M10.1338 18.6641L10.1511 18.6934C10.1511 18.6934 10.1511 18.6964 10.1527 18.6978H10.1543C10.1464 18.6861 10.1401 18.6758 10.1338 18.6641Z" fill="#141414"/>
<path d="M9.69654 17.9135L9.69397 17.9082L9.69141 17.9135H9.69654Z" fill="#141414"/>
<path d="M17.7256 4.98495C17.7256 4.98495 17.7335 4.9732 17.7398 4.96292C17.7413 4.95998 17.7445 4.95558 17.7476 4.95117C17.7413 4.96145 17.7335 4.97173 17.7272 4.98348L17.7256 4.98495Z" fill="#141414"/>
<path d="M3.15842 6.26172H3.15527L3.16943 6.28052H3.171L3.15842 6.26172Z" fill="#141414"/>
<path d="M3.16943 6.28052L3.15685 6.26172H3.15527L3.16786 6.28052H3.16943Z" fill="#141414"/>
<path d="M7.80881 6.2578L10.654 1.58318H10.6525C10.7533 1.42765 10.8132 1.24718 10.8132 1.05351C10.8195 0.478351 10.32 0.0044327 9.7009 3.09865e-05C9.08176 -0.00437073 8.57447 0.460744 8.56974 1.03737C8.56817 1.23104 8.62488 1.41298 8.72256 1.56998L9.23615 2.47526L9.57644 1.91624L9.24245 1.33228C9.23142 1.30881 9.15108 1.1973 9.14635 1.04177C9.13847 0.761528 9.39527 0.535573 9.69618 0.538508C9.99708 0.541442 10.2397 0.770331 10.2365 1.05057C10.2365 1.14448 10.2066 1.23104 10.1578 1.30587C10.1515 1.31614 7.45119 5.72373 7.45119 5.72373L2.99902 5.72813L3.35034 6.26514L7.80724 6.26074L7.80881 6.2578Z" fill="#141414"/>
<path d="M9.78906 3.36513L11.5835 6.25559L16.0167 6.25119L16.138 6.06926L16.3744 5.71272L11.9159 5.71712L10.1215 2.82812L9.78906 3.36513Z" fill="#141414"/>
<path d="M9.60427 16.6405L7.79568 13.7324L3.34036 13.7354L2.99849 14.265L2.99219 14.2738L7.46326 14.2694L9.27028 17.1775L9.60427 16.6405Z" fill="#141414"/>
<path d="M3.16067 6.28155L2.12719 4.69693C2.03109 4.53994 1.89245 4.40202 1.71128 4.30664C1.17406 4.01907 0.487168 4.19367 0.179959 4.69253C-0.12725 5.19286 0.0586489 5.83257 0.594295 6.11868C0.77547 6.21552 0.972399 6.25807 1.16618 6.2566L2.27686 6.27128L1.92238 5.72987L1.19454 5.71813C1.18351 5.71813 1.1709 5.71813 1.1583 5.71813C1.06377 5.71813 0.969248 5.69905 0.882599 5.6521C0.621078 5.51271 0.531278 5.20166 0.680944 4.95957C0.83061 4.716 1.16933 4.62357 1.42455 4.77176C1.56634 4.85392 1.62935 4.97424 1.64511 4.99478L2.74791 6.68797L4.80385 9.9966L2.11144 14.2619H2.10828C2.10828 14.2619 2.10828 14.2633 2.10828 14.2648L1.60572 14.9969C1.601 15.0072 1.59312 15.016 1.58682 15.0248C1.53798 15.0997 1.47023 15.1642 1.38201 15.2097C1.11734 15.3432 0.7865 15.2508 0.643135 15.0057C0.499771 14.7593 0.594296 14.4423 0.863695 14.3176C0.97555 14.2663 1.08426 14.2604 1.14255 14.2604H1.15042C1.16618 14.2604 1.17878 14.2604 1.18351 14.2604L1.88615 14.2648L2.2359 13.7307L1.16618 13.7204C0.972399 13.7131 0.772319 13.7527 0.589569 13.8452C0.0444702 14.1195 -0.157184 14.7549 0.137421 15.261C0.432027 15.7672 1.11419 15.9565 1.65771 15.6836C1.84046 15.5912 1.98383 15.4577 2.08308 15.3021H2.08465L2.78572 14.2765L5.46868 9.9966L3.16067 6.28155Z" fill="#141414"/>
<path d="M3.17062 6.28052L3.15804 6.26172H3.15646H3.15332L3.16748 6.28052H3.16905H3.17062Z" fill="#141414"/>
<path d="M9.60232 16.6424L7.79372 13.7344L3.33841 13.7373L2.99654 14.267L2.99023 14.2758L7.4613 14.2714L9.26832 17.1794L9.60232 16.6424Z" fill="#141414"/>
<path d="M9.78711 3.36513L11.5815 6.25559L16.0148 6.25119L16.1361 6.06926L16.3724 5.71272L11.9139 5.71712L10.1195 2.82812L9.78711 3.36513Z" fill="#141414"/>
<path d="M7.80686 6.2578L10.6521 1.58318H10.6505C10.7513 1.42765 10.8112 1.24718 10.8112 1.05351C10.8175 0.478351 10.3181 0.0044327 9.69895 3.09865e-05C9.0798 -0.00437073 8.57252 0.460744 8.56779 1.03737C8.56622 1.23104 8.62293 1.41298 8.72061 1.56998L9.23419 2.47526L9.57449 1.91624L9.2405 1.33228C9.22947 1.30881 9.14913 1.1973 9.1444 1.04177C9.13652 0.761528 9.39332 0.535573 9.69422 0.538508C9.99513 0.541442 10.2377 0.770331 10.2346 1.05057C10.2346 1.14448 10.2047 1.23104 10.1558 1.30587C10.1495 1.31614 7.44923 5.72373 7.44923 5.72373L2.99707 5.72813L3.34839 6.26514L7.80528 6.26074L7.80686 6.2578Z" fill="#141414"/>
<path d="M17.7236 4.98495C17.7236 4.98495 17.7315 4.9732 17.7378 4.96292C17.7394 4.95998 17.7425 4.95558 17.7457 4.95117C17.7394 4.96145 17.7315 4.97173 17.7252 4.98348L17.7236 4.98495Z" fill="#141414"/>
<path d="M9.69171 17.9128H9.69622L9.69396 17.9084L9.69171 17.9062L9.68945 17.9128H9.69171Z" fill="#141414"/>
<path d="M10.1318 18.6641C10.1318 18.6641 10.1413 18.6802 10.1492 18.6934C10.1492 18.6934 10.1492 18.6964 10.1507 18.6978H10.1523C10.1444 18.6861 10.1381 18.6758 10.1318 18.6641Z" fill="#141414"/>
<path d="M3.15872 6.28155L2.12524 4.69693C2.02914 4.53994 1.8905 4.40202 1.70932 4.30664C1.1721 4.01907 0.485214 4.19367 0.178006 4.69253C-0.129203 5.19286 0.0566958 5.83257 0.592342 6.11868C0.773516 6.21552 0.970446 6.25807 1.16422 6.2566L2.2749 6.27128L1.92043 5.72987L1.19258 5.71813C1.18155 5.71813 1.16895 5.71813 1.15635 5.71813C1.06182 5.71813 0.967295 5.69905 0.880646 5.6521C0.619125 5.51271 0.529325 5.20166 0.678991 4.95957C0.828657 4.716 1.16737 4.62357 1.42259 4.77176C1.56438 4.85392 1.6274 4.97424 1.64316 4.99478L2.74596 6.68797L4.80189 9.9966L2.10948 14.2619H2.10633C2.10633 14.2619 2.10633 14.2633 2.10633 14.2648L1.60377 14.9969C1.59904 15.0072 1.59117 15.016 1.58486 15.0248C1.53603 15.0997 1.46828 15.1642 1.38006 15.2097C1.11538 15.3432 0.784547 15.2508 0.641182 15.0057C0.497818 14.7593 0.592343 14.4423 0.861742 14.3176C0.973597 14.2663 1.0823 14.2604 1.14059 14.2604H1.14847C1.16423 14.2604 1.17683 14.2604 1.18155 14.2604L1.8842 14.2648L2.23394 13.7307L1.16422 13.7204C0.970446 13.7131 0.770366 13.7527 0.587616 13.8452C0.0425171 14.1195 -0.159137 14.7549 0.135468 15.261C0.430074 15.7672 1.11223 15.9565 1.65576 15.6836C1.83851 15.5912 1.98187 15.4577 2.08113 15.3021H2.0827L2.78377 14.2765L5.46673 9.9966L3.15872 6.28155Z" fill="#141414"/>
<path d="M3.15872 6.28155L2.12524 4.69693C2.02914 4.53994 1.8905 4.40202 1.70932 4.30664C1.1721 4.01907 0.485214 4.19367 0.178006 4.69253C-0.129203 5.19286 0.0566958 5.83257 0.592342 6.11868C0.773516 6.21552 0.970446 6.25807 1.16422 6.2566L2.2749 6.27128L1.92043 5.72987L1.19258 5.71813C1.18155 5.71813 1.16895 5.71813 1.15635 5.71813C1.06182 5.71813 0.967295 5.69905 0.880646 5.6521C0.619125 5.51271 0.529325 5.20166 0.678991 4.95957C0.828657 4.716 1.16737 4.62357 1.42259 4.77176C1.56438 4.85392 1.6274 4.97424 1.64316 4.99478L2.74596 6.68797L4.80189 9.9966L2.10948 14.2619H2.10633C2.10633 14.2619 2.10633 14.2633 2.10633 14.2648L1.60377 14.9969C1.59904 15.0072 1.59117 15.016 1.58486 15.0248C1.53603 15.0997 1.46828 15.1642 1.38006 15.2097C1.11538 15.3432 0.784547 15.2508 0.641182 15.0057C0.497818 14.7593 0.592343 14.4423 0.861742 14.3176C0.973597 14.2663 1.0823 14.2604 1.14059 14.2604H1.14847C1.16423 14.2604 1.17683 14.2604 1.18155 14.2604L1.8842 14.2648L2.23394 13.7307L1.16422 13.7204C0.970446 13.7131 0.770366 13.7527 0.587616 13.8452C0.0425171 14.1195 -0.159137 14.7549 0.135468 15.261C0.430074 15.7672 1.11223 15.9565 1.65576 15.6836C1.83851 15.5912 1.98187 15.4577 2.08113 15.3021H2.0827L2.78377 14.2765L5.46673 9.9966L3.15872 6.28155Z" fill="#141414"/>
<path d="M3.16867 6.28052L3.15609 6.26172H3.15451H3.15137L3.16552 6.28052H3.1671H3.16867Z" fill="#141414"/>
<path d="M3.16867 6.28052L3.15609 6.26172H3.15451H3.15137L3.16552 6.28052H3.1671H3.16867Z" fill="#141414"/>
<path d="M7.8049 6.2578L10.6501 1.58318H10.6486C10.7494 1.42765 10.8092 1.24718 10.8092 1.05351C10.8156 0.478351 10.3161 0.0044327 9.697 3.09865e-05C9.07785 -0.00437073 8.57056 0.460744 8.56584 1.03737C8.56426 1.23104 8.62098 1.41298 8.71865 1.56998L9.23224 2.47526L9.57254 1.91624L9.23854 1.33228C9.22752 1.30881 9.14717 1.1973 9.14245 1.04177C9.13457 0.761528 9.39136 0.535573 9.69227 0.538508C9.99318 0.541442 10.2358 0.770331 10.2326 1.05057C10.2326 1.14448 10.2027 1.23104 10.1539 1.30587C10.1476 1.31614 7.44728 5.72373 7.44728 5.72373L2.99512 5.72813L3.34644 6.26514L7.80333 6.26074L7.8049 6.2578Z" fill="#141414"/>
<path d="M7.8049 6.2578L10.6501 1.58318H10.6486C10.7494 1.42765 10.8092 1.24718 10.8092 1.05351C10.8156 0.478351 10.3161 0.0044327 9.697 3.09865e-05C9.07785 -0.00437073 8.57056 0.460744 8.56584 1.03737C8.56426 1.23104 8.62098 1.41298 8.71865 1.56998L9.23224 2.47526L9.57254 1.91624L9.23854 1.33228C9.22752 1.30881 9.14717 1.1973 9.14245 1.04177C9.13457 0.761528 9.39136 0.535573 9.69227 0.538508C9.99318 0.541442 10.2358 0.770331 10.2326 1.05057C10.2326 1.14448 10.2027 1.23104 10.1539 1.30587C10.1476 1.31614 7.44728 5.72373 7.44728 5.72373L2.99512 5.72813L3.34644 6.26514L7.80333 6.26074L7.8049 6.2578Z" fill="#141414"/>
<path d="M17.7217 4.98495C17.7217 4.98495 17.7296 4.9732 17.7359 4.96292C17.7374 4.95998 17.7406 4.95558 17.7437 4.95117C17.7374 4.96145 17.7296 4.97173 17.7233 4.98348L17.7217 4.98495Z" fill="#141414"/>
<path d="M17.7217 4.98495C17.7217 4.98495 17.7296 4.9732 17.7359 4.96292C17.7374 4.95998 17.7406 4.95558 17.7437 4.95117C17.7374 4.96145 17.7296 4.97173 17.7233 4.98348L17.7217 4.98495Z" fill="#141414"/>
<path d="M9.78516 3.36513L11.5796 6.25559L16.0128 6.25119L16.1341 6.06926L16.3705 5.71272L11.912 5.71712L10.1176 2.82812L9.78516 3.36513Z" fill="#141414"/>
<path d="M9.78516 3.36513L11.5796 6.25559L16.0128 6.25119L16.1341 6.06926L16.3705 5.71272L11.912 5.71712L10.1176 2.82812L9.78516 3.36513Z" fill="#141414"/>
<path d="M9.60037 16.6405L7.79177 13.7324L3.33645 13.7354L2.99458 14.265L2.98828 14.2738L7.45935 14.2694L9.26637 17.1775L9.60037 16.6405Z" fill="#141414"/>
<path d="M9.60037 16.6405L7.79177 13.7324L3.33645 13.7354L2.99458 14.265L2.98828 14.2738L7.45935 14.2694L9.26637 17.1775L9.60037 16.6405Z" fill="#141414"/>
<path d="M9.68976 17.9128H9.69427L9.69201 17.9084L9.68976 17.9062L9.6875 17.9128H9.68976Z" fill="#141414"/>
<path d="M9.68976 17.9128H9.69427L9.69201 17.9084L9.68976 17.9062L9.6875 17.9128H9.68976Z" fill="#141414"/>
<path d="M16.2197 13.7213L16.267 13.7844L16.1709 13.6406L16.2197 13.7213Z" fill="#141414"/>
<path d="M10.1357 18.6641C10.1357 18.6641 10.1452 18.6802 10.1531 18.6934C10.1531 18.6934 10.1531 18.6964 10.1546 18.6978H10.1562C10.1483 18.6861 10.142 18.6758 10.1357 18.6641Z" fill="#141414"/>
<path d="M16.1196 13.8527L16.0345 13.7266L11.5918 13.731L8.72764 18.4247H8.73079C8.63153 18.5817 8.57324 18.7621 8.57324 18.9558C8.57324 19.5324 9.07738 20.0005 9.69495 20.0005C10.3125 20.0005 10.8167 19.531 10.8167 18.9558C10.8167 18.7621 10.7584 18.5802 10.6591 18.4247L10.1298 17.5282L9.79578 18.0755L10.1392 18.6653C10.1471 18.6756 10.1534 18.6873 10.1597 18.699H10.1581C10.1865 18.7475 10.2322 18.8384 10.2369 18.9558C10.2479 19.236 9.99271 19.4635 9.6918 19.4635C9.39089 19.4635 9.1467 19.236 9.1467 18.9558C9.1467 18.8619 9.17506 18.7753 9.2239 18.699C9.2302 18.6902 9.23493 18.68 9.24123 18.6697L9.69023 17.9097L11.9226 14.2665L16.3968 14.2621L16.3764 14.2328L16.118 13.8527H16.1196Z" fill="#141414"/>
<path d="M17.8258 14.9429C17.8193 14.9338 17.8112 14.9247 17.8047 14.9141L17.8258 14.9429Z" fill="#141414"/>
<path d="M17.8258 14.9429L17.8047 14.9141C17.8112 14.9247 17.8193 14.9338 17.8258 14.9429Z" fill="#141414"/>
<path d="M17.2783 14.1992H17.2715L17.276 14.2058C17.276 14.2058 17.276 14.2036 17.2783 14.2014V14.1992Z" fill="#141414"/>
<path d="M18.7775 13.8293C18.5948 13.7354 18.3963 13.6958 18.2025 13.7017H18.2293H17.1139L17.451 14.2387H18.1805C18.2088 14.2431 18.3506 14.2299 18.5003 14.3003C18.7697 14.4265 18.8595 14.7449 18.7161 14.9899C18.5712 15.2349 18.2387 15.3244 17.9757 15.1895C17.8874 15.144 17.8197 15.0779 17.7724 15.0031C17.7661 14.9943 17.7598 14.9855 17.7535 14.9752L17.2667 14.2578L14.5633 9.98956L16.7815 6.42564L17.7252 4.98628C17.7315 4.97454 17.7393 4.96427 17.7456 4.95253C17.7771 4.90705 17.8386 4.82341 17.9457 4.76179C18.2009 4.61507 18.5397 4.7075 18.6893 4.9496C18.839 5.19169 18.7476 5.50275 18.4877 5.64213C18.401 5.68908 18.3049 5.70816 18.2104 5.70669C18.1978 5.70669 18.1868 5.70669 18.1757 5.70669H18.1931C18.0796 5.70669 17.44 5.71843 17.44 5.71843L17.0871 6.25984L18.2025 6.24664C18.3963 6.24664 18.5948 6.20409 18.7744 6.10871C19.31 5.8226 19.4975 5.18289 19.1903 4.68256C18.8831 4.1837 18.1946 4.01056 17.659 4.29521C17.4778 4.39205 17.3392 4.5285 17.2431 4.68696L15.5605 7.30598L13.8984 9.98956L16.1686 13.6415L16.2726 13.7956L16.2647 13.7853L17.273 15.2775H17.2746C17.3738 15.4316 17.5156 15.5665 17.6984 15.659C18.2403 15.9363 18.9241 15.7529 19.2218 15.2467C19.5196 14.7419 19.3211 14.1052 18.7791 13.8279L18.7775 13.8293Z" fill="#141414"/>
<path d="M16.1709 13.6406L16.267 13.7844L16.2749 13.7947L16.1709 13.6406Z" fill="#141414"/>
<path d="M3.16789 6.28155L2.1344 4.69693C2.0383 4.53994 1.89967 4.40202 1.71849 4.30664C1.18127 4.01907 0.494381 4.19367 0.187173 4.69253C-0.120036 5.19286 0.0658628 5.83257 0.601509 6.11868C0.782684 6.21552 0.979613 6.25807 1.17339 6.2566L2.28407 6.27128L1.9296 5.72987L1.20175 5.71813C1.19072 5.71813 1.17812 5.71813 1.16551 5.71813C1.07099 5.71813 0.976462 5.69905 0.889813 5.6521C0.628292 5.51271 0.538492 5.20166 0.688158 4.95957C0.837824 4.716 1.17654 4.62357 1.43176 4.77176C1.57355 4.85392 1.63657 4.97424 1.65232 4.99478L2.75512 6.68797L4.81106 9.99659L2.11865 14.2619H2.12022L2.11707 14.2663L1.61451 14.9984C1.60979 15.0087 1.60191 15.0175 1.59561 15.0263C1.54677 15.1011 1.47903 15.1657 1.3908 15.2112C1.12613 15.3447 0.795288 15.2522 0.651924 15.0072C0.50856 14.7607 0.603085 14.4438 0.872483 14.3191C0.984339 14.2677 1.09304 14.2619 1.15134 14.2619C1.16551 14.2619 1.17969 14.2619 1.1923 14.2619L1.89494 14.2663L2.24468 13.7322L1.17497 13.7219C0.981188 13.7146 0.78111 13.7542 0.59836 13.8466C0.0532611 14.121 -0.148396 14.7563 0.14621 15.2625C0.440815 15.7687 1.12298 15.958 1.6665 15.6851C1.84925 15.5926 1.99261 15.4591 2.09187 15.3036H2.09344L2.79451 14.278L5.47747 9.99806L3.16946 6.28302L3.16789 6.28155ZM2.50305 13.7278H2.4873L2.63224 13.5165L2.50148 13.7278H2.50305Z" fill="#141414"/>
<path d="M2.11328 14.269L2.11841 14.2637H2.11585L2.11328 14.2663V14.269Z" fill="#141414"/>
<path d="M2.50013 13.7269L2.62931 13.5156L2.48438 13.7269H2.50013Z" fill="#141414"/>
<path d="M2.11556 14.2637L2.11328 14.2664L2.11556 14.2637Z" fill="#141414"/>
<path d="M7.94501 9.23249C7.68191 9.23249 7.49129 9.09897 7.36053 8.8246L7.33532 8.77325L6.81543 8.9097L6.84221 8.97572C6.94461 9.22956 7.09428 9.42323 7.28648 9.55088C7.48026 9.68 7.70555 9.74456 7.95604 9.74456C8.20653 9.74456 8.44285 9.66092 8.62717 9.49366C8.8115 9.32639 8.90602 9.12245 8.90602 8.88476C8.90602 8.78352 8.8887 8.68668 8.85404 8.59571C8.81938 8.50474 8.76739 8.41671 8.69649 8.33601C8.62717 8.25531 8.53737 8.18048 8.43025 8.11446C8.32627 8.0499 8.17817 7.97947 7.99385 7.90464C7.81898 7.83421 7.69452 7.76965 7.6252 7.7139C7.56533 7.66548 7.5354 7.61119 7.5354 7.55104C7.5354 7.47914 7.56691 7.42339 7.63623 7.3779C7.71027 7.32802 7.8111 7.30307 7.93398 7.30307C8.04741 7.30307 8.13406 7.31921 8.18921 7.35149C8.25222 7.38817 8.32311 7.44539 8.40188 7.52169L8.446 7.56424L8.86349 7.25172L8.82095 7.20037C8.70752 7.06391 8.56573 6.96267 8.39559 6.89518C8.22859 6.82916 8.06159 6.79688 7.89775 6.79688C7.64726 6.79688 7.433 6.87024 7.25655 7.01403C7.07852 7.15928 6.98715 7.33975 6.98715 7.54663C6.98715 7.6332 7.0029 7.71537 7.03599 7.79166C7.0675 7.86649 7.11791 7.94279 7.18565 8.01762C7.2534 8.09245 7.33375 8.15701 7.42512 8.21129C7.51334 8.26411 7.64095 8.32134 7.80322 8.38296C7.95604 8.44165 8.06947 8.493 8.13721 8.53702C8.20181 8.5781 8.25695 8.63239 8.30106 8.69695C8.34202 8.75857 8.36408 8.81873 8.36408 8.87889C8.36408 8.98013 8.32627 9.06229 8.2475 9.12832C8.16715 9.19581 8.06632 9.22956 7.94186 9.22956L7.94501 9.23249Z" fill="#141414"/>
<path d="M11.5783 8.11032L12.01 9.65532H12.5346L11.6823 6.63281L10.7843 8.63853L9.88161 6.63428L9.0293 9.65532H9.55234L9.98873 8.09565L10.7859 9.86074L11.5783 8.11032Z" fill="#141414"/>
<path d="M8.20433 12.2509L7.35833 10.4727H6.7959L8.19803 13.4277L9.62379 10.4727H9.05664L8.20433 12.2509Z" fill="#141414"/>
<path d="M10.7457 10.4683H9.98633V13.2428H10.7488C11.2908 13.2428 11.7114 13.1005 11.9982 12.8217C12.2849 12.5429 12.4298 12.2187 12.4298 11.8548C12.4298 11.4909 12.2896 11.1711 12.0123 10.8908C11.7335 10.6091 11.3065 10.4668 10.7441 10.4668L10.7457 10.4683ZM10.5157 10.951H10.6417C10.9221 10.951 11.1474 10.9789 11.3097 11.0317C11.4657 11.083 11.6043 11.1872 11.7177 11.3398C11.8327 11.4924 11.8894 11.6655 11.8894 11.8548C11.8894 12.0045 11.8532 12.1439 11.7823 12.2686C11.7114 12.3933 11.6137 12.4945 11.4924 12.5694C11.3696 12.6456 11.2404 12.6955 11.1049 12.7175C10.9725 12.7395 10.774 12.7513 10.5141 12.7528V10.9495L10.5157 10.951Z" fill="#141414"/>
</svg>
