<svg width="50" height="56" viewBox="0 0 50 56" fill="none" xmlns="http://www.w3.org/2000/svg">
<path d="M28.0164 16C28.0164 18.2091 29.8072 20 32.0164 20C34.2255 20 36.0164 18.2091 36.0164 16C36.0164 13.7909 34.2255 12 32.0164 12C29.8072 12 28.0164 13.7909 28.0164 16ZM41.9998 16C41.9998 18.2091 43.7907 20 45.9998 20C48.209 20 49.9998 18.2091 49.9998 16C49.9998 13.7909 48.209 12 45.9998 12C43.7907 12 41.9998 13.7909 41.9998 16ZM34.9998 27.9998C34.9998 30.209 36.7906 31.9998 38.9998 31.9998C41.2089 31.9998 42.9998 30.209 42.9998 27.9998C42.9998 25.7907 41.2089 23.9998 38.9998 23.9998C36.7906 23.9998 34.9998 25.7907 34.9998 27.9998ZM42 40C42 42.2091 43.7909 44 46 44C48.2091 44 50 42.2091 50 40C50 37.7909 48.2091 36 46 36C43.7909 36 42 37.7909 42 40ZM27.9999 40C27.9999 42.2091 29.7908 44 31.9999 44C34.2091 44 35.9999 42.2091 35.9999 40C35.9999 37.7909 34.2091 36 31.9999 36C29.7908 36 27.9999 37.7909 27.9999 40ZM20.9999 52C20.9999 54.2091 22.7908 56 24.9999 56C27.209 56 28.9999 54.2091 28.9999 52C28.9999 49.7909 27.209 48 24.9999 48C22.7908 48 20.9999 49.7909 20.9999 52ZM13.9999 40C13.9999 42.2091 15.7907 44 17.9999 44C20.209 44 21.9999 42.2091 21.9999 40C21.9999 37.7909 20.209 36 17.9999 36C15.7907 36 13.9999 37.7909 13.9999 40ZM0 40C0 42.2091 1.79086 44 4 44C6.20914 44 8 42.2091 8 40C8 37.7909 6.20914 36 4 36C1.79086 36 0 37.7909 0 40ZM6.99985 28C6.99985 30.2091 8.79071 32 10.9998 32C13.209 32 14.9998 30.2091 14.9998 28C14.9998 25.7909 13.209 24 10.9998 24C8.79071 24 6.99985 25.7909 6.99985 28ZM0 16C0 18.2091 1.79086 20 4 20C6.20914 20 8 18.2091 8 16C8 13.7909 6.20914 12 4 12C1.79086 12 0 13.7909 0 16ZM13.9999 16C13.9999 18.2091 15.7907 20 17.9999 20C20.209 20 21.9999 18.2091 21.9999 16C21.9999 13.7909 20.209 12 17.9999 12C15.7907 12 13.9999 13.7909 13.9999 16ZM21.0163 4C21.0163 6.20914 22.8072 8 25.0163 8C27.2255 8 29.0163 6.20914 29.0163 4C29.0163 1.79086 27.2255 0 25.0163 0C22.8072 0 21.0163 1.79086 21.0163 4ZM32.0164 16V16.75H45.9998V16V15.25H32.0164V16ZM38.9998 27.9998L38.352 28.3777L45.3522 40.3779L46 40L46.6478 39.6221L39.6476 27.6219L38.9998 27.9998ZM31.9999 40L31.3521 39.6221L24.3521 51.6221L24.9999 52L25.6477 52.3779L32.6478 40.3779L31.9999 40ZM17.9999 40V39.25H4V40V40.75H17.9999V40ZM10.9998 28L11.6477 27.6221L4.64784 15.6221L4 16L3.35216 16.3779L10.352 28.3779L10.9998 28ZM17.9999 16L18.6473 16.3786L25.6638 4.37857L25.0163 4L24.3689 3.62143L17.3524 15.6214L17.9999 16Z" fill="black"/>
</svg>
