<svg width="59" height="62" viewBox="0 0 59 62" fill="none" xmlns="http://www.w3.org/2000/svg">
<path d="M54.1556 11.9996L43.101 14.9086L46.01 25.9633L57.0646 23.0542L54.1556 11.9996ZM39.01 37.9631L50.0646 35.0541L47.1556 23.9995L36.101 26.9085L39.01 37.9631ZM58.1659 42.9814L50.083 34.8985L42.0001 42.9814L50.083 51.0644L58.1659 42.9814ZM28 42.9814L36.0829 51.0644L44.1658 42.9814L36.0829 34.8985L28 42.9814ZM33.1557 61.9633L36.0647 50.9087L25.0102 47.9996L22.1011 59.0542L33.1557 61.9633ZM18.0101 35.9996L15.1011 47.0542L26.1556 49.9633L29.0647 38.9087L18.0101 35.9996ZM4.01033 49.9633L15.0649 47.0541L12.1557 35.9996L1.10113 38.9088L4.01033 49.9633ZM19.1555 23.9996L8.10097 26.9088L11.0102 37.9633L22.0647 35.0541L19.1555 23.9996ZM0.000103951 18.9814L8.08301 27.0643L16.1659 18.9814L8.08301 10.8985L0.000103951 18.9814ZM30.1658 18.9814L22.0829 10.8985L14 18.9814L22.0829 27.0643L30.1658 18.9814ZM25.0266 -0.000387669L22.1175 11.0542L33.1721 13.9633L36.0812 2.90869L25.0266 -0.000387669ZM40.1721 25.9633L43.0812 14.9087L32.0266 11.9996L29.1175 23.0542L40.1721 25.9633ZM50.0828 18.9814L48.8735 18.276L41.8735 30.2758L43.0828 30.9813L44.2921 31.6867L51.2921 19.6869L50.0828 18.9814ZM50.083 42.9814V41.5814H36.0829V42.9814V44.3814H50.083V42.9814ZM29.0829 54.9814L30.2922 54.276L23.2922 42.276L22.0829 42.9814L20.8736 43.6869L27.8736 55.6869L29.0829 54.9814ZM8.08301 42.9814L9.2923 43.6869L16.2922 31.6869L15.0829 30.9814L13.8736 30.276L6.87371 42.276L8.08301 42.9814ZM8.08301 18.9814V20.3814H22.0829V18.9814V17.5814H8.08301V18.9814ZM29.0993 6.98145L27.89 7.68687L34.8901 19.6869L36.0994 18.9814L37.3087 18.276L30.3086 6.27602L29.0993 6.98145Z" fill="black"/>
</svg>
