<svg width="160" height="160" viewBox="0 0 160 160" fill="none" xmlns="http://www.w3.org/2000/svg">
<rect width="160" height="160" fill="white"/>
<path d="M55.4601 68.4921C51.6906 68.4921 48.9595 66.5664 47.0861 62.6092L46.7249 61.8686L39.2764 63.8366L39.66 64.7888C41.1272 68.4497 43.2715 71.243 46.0252 73.0841C48.8015 74.9463 52.0292 75.8774 55.6181 75.8774C59.2069 75.8774 62.5927 74.6712 65.2336 72.2588C67.8744 69.8464 69.2287 66.905 69.2287 63.4768C69.2287 62.0167 68.9804 60.62 68.4839 59.308C67.9873 57.996 67.2424 56.7264 66.2267 55.5625C65.2336 54.3986 63.947 53.3194 62.4121 52.3671C60.9224 51.436 58.8006 50.4203 56.1598 49.3411C53.6543 48.3253 51.8712 47.3942 50.8781 46.5901C50.0203 45.8918 49.5915 45.1088 49.5915 44.2412C49.5915 43.2043 50.0429 42.4002 51.0361 41.7442C52.0969 41.0247 53.5415 40.6649 55.3021 40.6649C56.9272 40.6649 58.1687 40.8977 58.9587 41.3633C59.8615 41.8923 60.8772 42.7176 62.0058 43.818L62.6378 44.4316L68.6193 39.9243L68.0098 39.1836C66.3847 37.2156 64.3533 35.7555 61.9155 34.7821C59.523 33.8298 57.1304 33.3643 54.783 33.3643C51.1941 33.3643 48.1244 34.4223 45.5964 36.4961C43.0458 38.5911 41.7366 41.1939 41.7366 44.1777C41.7366 45.4262 41.9624 46.6113 42.4364 47.7116C42.8878 48.7909 43.61 49.8913 44.5806 50.9705C45.5512 52.0497 46.7024 52.9808 48.0115 53.7638C49.2755 54.5256 51.1038 55.3509 53.4287 56.2397C55.6181 57.0861 57.2432 57.8267 58.2138 58.4616C59.1392 59.0541 59.9292 59.8371 60.5612 60.7682C61.1481 61.657 61.4641 62.5246 61.4641 63.3922C61.4641 64.8523 60.9224 66.0374 59.7938 66.9896C58.6427 67.963 57.1981 68.4497 55.415 68.4497L55.4601 68.4921Z" fill="#B7BEC6"/>
<path d="M107.381 52.3095L113.566 74.5925H121.082L108.871 31L96.0046 59.9276L83.0708 31.0212L70.8594 74.5925H78.3533L84.6057 52.0979L96.0272 77.5551L107.381 52.3095Z" fill="#B7BEC6"/>
<path d="M59.1071 112.028L46.9859 86.3809H38.9277L59.0168 129L79.4443 86.3809H71.3185L59.1071 112.028Z" fill="#B7BEC6"/>
<path d="M95.5486 86.3141H84.6689V126.33H95.5938C103.359 126.33 109.385 124.278 113.493 120.257C117.601 116.236 119.678 111.56 119.678 106.312C119.678 101.064 117.669 96.4504 113.696 92.4086C109.701 88.3456 103.584 86.293 95.5261 86.293L95.5486 86.3141ZM92.2531 93.2762H94.0589C98.0767 93.2762 101.304 93.6783 103.629 94.4401C105.864 95.1807 107.85 96.6832 109.476 98.884C111.123 101.085 111.936 103.582 111.936 106.312C111.936 108.47 111.417 110.48 110.401 112.279C109.385 114.078 107.986 115.538 106.248 116.617C104.487 117.718 102.636 118.437 100.695 118.755C98.799 119.072 95.9549 119.241 92.2306 119.262V93.2551L92.2531 93.2762Z" fill="#B7BEC6"/>
</svg>
