<svg width="160" height="160" viewBox="0 0 160 160" fill="none" xmlns="http://www.w3.org/2000/svg">
<rect width="180" height="180" transform="translate(-10 -10)" fill="white"/>
<rect width="180" height="180" transform="translate(-10 -10)" fill="black" fill-opacity="0.2"/>
<path d="M125.035 97.712H112.411V62.624H124.699C135.067 62.624 142.219 69.776 142.219 80.24C142.219 90.56 135.211 97.712 125.035 97.712ZM124.123 68.288H118.555V92.048H124.459C131.467 92.048 135.739 87.536 135.739 80.24C135.739 72.8 131.371 68.288 124.123 68.288Z" fill="#1D1F21"/>
<path d="M92.4814 97.712L79.2334 62.624H85.7614L93.4414 82.832C94.2094 84.944 94.8814 87.008 95.6494 89.84C96.5134 86.768 97.2334 84.608 97.9054 82.832L105.489 62.624H111.873L98.8174 97.712H92.4814Z" fill="#1D1F21"/>
<path d="M50.0116 97.712H44.0596V62.624H50.0116L61.3396 90.56L72.6676 62.624H78.7156V97.712H72.7636V86.912C72.7636 79.856 72.7636 77.792 73.0996 75.296L64.1716 97.712H58.5076L49.6276 75.344C49.9636 77.456 50.0116 80.768 50.0116 85.136V97.712Z" fill="#1D1F21"/>
<path d="M17.4771 72.416C17.4771 66.272 22.5651 62 29.9571 62C37.0611 62 41.5731 65.936 41.7651 72.272H35.6211C35.4771 69.248 33.3171 67.472 29.8611 67.472C26.0691 67.472 23.6211 69.296 23.6211 72.224C23.6211 74.72 24.9651 76.112 27.8931 76.784L33.4131 77.984C39.4131 79.28 42.3411 82.352 42.3411 87.584C42.3411 94.112 37.2531 98.336 29.5251 98.336C22.0371 98.336 17.1411 94.352 16.9971 88.064H23.1411C23.1891 91.04 25.5891 92.816 29.5251 92.816C33.6051 92.816 36.1971 91.04 36.1971 88.112C36.1971 85.76 34.9971 84.368 32.1171 83.744L26.5491 82.496C20.5971 81.2 17.4771 77.792 17.4771 72.416Z" fill="#1D1F21"/>
</svg>
