<svg width="160" height="160" viewBox="0 0 160 160" fill="none" xmlns="http://www.w3.org/2000/svg">
<rect width="180" height="180" transform="translate(-10 -10)" fill="white"/>
<rect width="180" height="180" transform="translate(-10 -10)" fill="black" fill-opacity="0.2"/>
<path d="M52.3932 67.0539C48.1526 67.0539 45.0801 64.8876 42.9724 60.4357L42.5661 59.6025L34.1865 61.8165L34.6182 62.8878C36.2687 67.0063 38.681 70.1488 41.779 72.2199C44.9023 74.3149 48.5335 75.3624 52.571 75.3624C56.6084 75.3624 60.4174 74.0054 63.3884 71.2915C66.3593 68.5775 67.8829 65.2684 67.8829 61.4118C67.8829 59.7691 67.6036 58.1979 67.0449 56.7219C66.4863 55.2459 65.6483 53.8175 64.5057 52.5082C63.3884 51.1988 61.941 49.9847 60.2142 48.9134C58.5383 47.8659 56.1513 46.7232 53.1804 45.5091C50.3618 44.3664 48.3557 43.3189 47.2384 42.4142C46.2735 41.6286 45.791 40.7478 45.791 39.7717C45.791 38.6052 46.2989 37.7005 47.4162 36.9625C48.6097 36.1531 50.2348 35.7484 52.2154 35.7484C54.0437 35.7484 55.4404 36.0103 56.3291 36.534C57.3449 37.1292 58.4875 38.0576 59.7571 39.2956L60.4681 39.986L67.1973 34.9152L66.5116 34.0819C64.6833 31.8679 62.398 30.2253 59.6556 29.1302C56.964 28.0589 54.2723 27.5352 51.6314 27.5352C47.594 27.5352 44.1405 28.7255 41.2965 31.0585C38.4271 33.4154 36.9543 36.3436 36.9543 39.7003C36.9543 41.1049 37.2083 42.438 37.7415 43.676C38.2494 44.8901 39.0619 46.128 40.1538 47.3422C41.2457 48.5563 42.5408 49.6038 44.0136 50.4846C45.4356 51.3417 47.4924 52.2701 50.1078 53.27C52.571 54.2222 54.3992 55.0555 55.4911 55.7696C56.5322 56.4362 57.421 57.3171 58.132 58.3646C58.7922 59.3644 59.1477 60.3405 59.1477 61.3166C59.1477 62.9592 58.5383 64.2924 57.2687 65.3637C55.9736 66.4588 54.3485 67.0063 52.3424 67.0063L52.3932 67.0539Z" fill="#1D1F21"/>
<path d="M110.803 48.8482L117.761 73.9165H126.217L112.479 24.875L98.0051 57.4186L83.4547 24.8988L69.7168 73.9165H78.1474L85.1814 48.6101L98.0306 77.2494L110.803 48.8482Z" fill="#1D1F21"/>
<path d="M56.4957 116.032L42.8594 87.1787H33.7939L56.3941 135.125L79.3751 87.1787H70.2336L56.4957 116.032Z" fill="#1D1F21"/>
<path d="M97.4926 87.1029H85.2529V132.121H97.5434C106.279 132.121 113.059 129.812 117.68 125.289C122.302 120.765 124.638 115.504 124.638 109.6C124.638 103.696 122.378 98.5063 117.909 93.9592C113.414 89.3883 106.533 87.0791 97.4672 87.0791L97.4926 87.1029ZM93.7851 94.9353H95.8166C100.337 94.9353 103.968 95.3876 106.583 96.2446C109.097 97.0779 111.332 98.7681 113.16 101.244C115.014 103.72 115.928 106.529 115.928 109.6C115.928 112.028 115.344 114.29 114.201 116.314C113.059 118.337 111.484 119.98 109.529 121.194C107.548 122.432 105.466 123.241 103.282 123.598C101.149 123.955 97.9497 124.146 93.7598 124.17V94.9115L93.7851 94.9353Z" fill="#1D1F21"/>
</svg>
