<svg width="32" height="33" viewBox="0 0 32 33" fill="none" xmlns="http://www.w3.org/2000/svg">
<path d="M15.9744 29.5517L15.977 29.5465L15.9744 29.5439L15.9717 29.5517H15.9744Z" fill="#4A4E55"/>
<path d="M15.9744 29.5517L15.977 29.5465L15.9744 29.5439L15.9717 29.5517H15.9744Z" fill="#4A4E55"/>
<path d="M16.7379 30.8449L16.709 30.7959C16.709 30.7959 16.7247 30.8228 16.7379 30.8449Z" fill="#4A4E55"/>
<path d="M16.709 30.7939L16.7379 30.8429C16.7379 30.8429 16.7379 30.8478 16.7405 30.8502H16.7431C16.73 30.8307 16.7195 30.8135 16.709 30.7939Z" fill="#4A4E55"/>
<path d="M15.9769 29.5512L15.9743 29.5459L15.9717 29.5512H15.9769Z" fill="#4A4E55"/>
<path d="M29.2373 8.22525C29.2373 8.22525 29.2504 8.20567 29.2609 8.18853C29.2636 8.18363 29.2688 8.17629 29.2741 8.16895C29.2636 8.18608 29.2504 8.20322 29.2399 8.2228L29.2373 8.22525Z" fill="#4A4E55"/>
<path d="M5.20447 10.333H5.19922L5.22285 10.3644H5.22548L5.20447 10.333Z" fill="#4A4E55"/>
<path d="M5.22286 10.3644L5.20185 10.333H5.19922L5.22023 10.3644H5.22286Z" fill="#4A4E55"/>
<path d="M12.8768 10.3252L17.571 2.61221H17.5684C17.7348 2.35559 17.8335 2.05782 17.8335 1.73826C17.8439 0.789267 17.02 0.00731385 15.9985 5.1127e-05C14.977 -0.00721159 14.14 0.760217 14.1322 1.71163C14.1296 2.03119 14.2232 2.33138 14.3844 2.59042L15.2317 4.08412L15.7931 3.16176L15.2421 2.19824C15.2239 2.1595 15.0914 1.97551 15.0836 1.7189C15.0706 1.2565 15.4942 0.883683 15.9907 0.888525C16.4871 0.893366 16.8874 1.27103 16.8822 1.73342C16.8822 1.88836 16.8328 2.03119 16.7522 2.15466C16.7419 2.17161 12.2868 9.44401 12.2868 9.44401L4.94141 9.45127L5.52103 10.3373L12.8742 10.3301L12.8768 10.3252Z" fill="#4A4E55"/>
<path d="M16.1377 5.55109L19.0982 10.3203L26.4124 10.313L26.6125 10.0128L27.0024 9.42455L19.6466 9.43181L16.6861 4.66504L16.1377 5.55109Z" fill="#4A4E55"/>
<path d="M15.8376 27.4594L12.8537 22.6611L5.50314 22.666L4.93911 23.5399L4.92871 23.5544L12.3053 23.5472L15.2866 28.3454L15.8376 27.4594Z" fill="#4A4E55"/>
<path d="M5.2114 10.3624L3.50632 7.74777C3.34776 7.48874 3.11903 7.26117 2.82012 7.10381C1.93379 6.62931 0.800529 6.9174 0.293682 7.74051C-0.213166 8.56604 0.0935393 9.62156 0.977273 10.0936C1.27618 10.2534 1.60109 10.3236 1.92079 10.3212L3.75324 10.3454L3.16842 9.45209L1.96758 9.43273C1.94938 9.43273 1.92859 9.43273 1.90779 9.43273C1.75184 9.43273 1.59589 9.40125 1.45293 9.32378C1.02146 9.0938 0.873305 8.58057 1.12023 8.18112C1.36716 7.77924 1.92599 7.62673 2.34706 7.87124C2.58099 8.00681 2.68496 8.20533 2.71096 8.23922L4.53041 11.0329L7.92239 16.4921L3.48032 23.5297H3.47512C3.47512 23.5297 3.47512 23.5321 3.47512 23.5345L2.64597 24.7425C2.63818 24.7595 2.62518 24.774 2.61478 24.7885C2.53421 24.912 2.42244 25.0185 2.27688 25.0936C1.84021 25.3139 1.29438 25.1614 1.05785 24.7571C0.821324 24.3504 0.977275 23.8274 1.42174 23.6217C1.60629 23.5369 1.78563 23.5273 1.8818 23.5273H1.8948C1.92079 23.5273 1.94158 23.5273 1.94938 23.5273L3.10864 23.5345L3.68566 22.6533L1.92079 22.6364C1.60109 22.6243 1.27099 22.6896 0.969476 22.8421C0.0701467 23.2948 -0.262552 24.3431 0.223502 25.1783C0.709556 26.0135 1.83502 26.3258 2.73175 25.8755C3.03325 25.723 3.26979 25.5027 3.43354 25.2461H3.43614L4.59279 23.5539L9.01926 16.4921L5.2114 10.3624Z" fill="#4A4E55"/>
<path d="M5.22127 10.3644L5.20026 10.333H5.19763H5.19238L5.21602 10.3644H5.21864H5.22127Z" fill="#4A4E55"/>
<path d="M15.8376 27.4594L12.8537 22.6611L5.50314 22.666L4.93911 23.5399L4.92871 23.5544L12.3053 23.5472L15.2866 28.3454L15.8376 27.4594Z" fill="#4A4E55"/>
<path d="M16.1377 5.55109L19.0982 10.3203L26.4124 10.313L26.6125 10.0128L27.0024 9.42455L19.6466 9.43181L16.6861 4.66504L16.1377 5.55109Z" fill="#4A4E55"/>
<path d="M12.8768 10.3252L17.571 2.61221H17.5684C17.7348 2.35559 17.8335 2.05782 17.8335 1.73826C17.8439 0.789267 17.02 0.00731385 15.9985 5.1127e-05C14.977 -0.00721159 14.14 0.760217 14.1322 1.71163C14.1296 2.03119 14.2232 2.33138 14.3844 2.59042L15.2317 4.08412L15.7931 3.16176L15.2421 2.19824C15.2239 2.1595 15.0914 1.97551 15.0836 1.7189C15.0706 1.2565 15.4942 0.883683 15.9907 0.888525C16.4871 0.893366 16.8874 1.27103 16.8822 1.73342C16.8822 1.88836 16.8328 2.03119 16.7522 2.15466C16.7419 2.17161 12.2868 9.44401 12.2868 9.44401L4.94141 9.45127L5.52103 10.3373L12.8742 10.3301L12.8768 10.3252Z" fill="#4A4E55"/>
<path d="M29.2373 8.22525C29.2373 8.22525 29.2504 8.20567 29.2609 8.18853C29.2636 8.18363 29.2688 8.17629 29.2741 8.16895C29.2636 8.18608 29.2504 8.20322 29.2399 8.2228L29.2373 8.22525Z" fill="#4A4E55"/>
<path d="M15.9748 29.5531H15.9811L15.9779 29.547L15.9748 29.5439L15.9717 29.5531H15.9748Z" fill="#4A4E55"/>
<path d="M16.709 30.7939C16.709 30.7939 16.7247 30.8209 16.7379 30.8429C16.7379 30.8429 16.7379 30.8478 16.7405 30.8502H16.7431C16.73 30.8307 16.7195 30.8135 16.709 30.7939Z" fill="#4A4E55"/>
<path d="M5.2114 10.3624L3.50632 7.74777C3.34776 7.48874 3.11903 7.26117 2.82012 7.10381C1.93379 6.62931 0.800529 6.9174 0.293682 7.74051C-0.213166 8.56604 0.0935393 9.62156 0.977273 10.0936C1.27618 10.2534 1.60109 10.3236 1.92079 10.3212L3.75324 10.3454L3.16842 9.45209L1.96758 9.43273C1.94938 9.43273 1.92859 9.43273 1.90779 9.43273C1.75184 9.43273 1.59589 9.40125 1.45293 9.32378C1.02146 9.0938 0.873305 8.58057 1.12023 8.18112C1.36716 7.77924 1.92599 7.62673 2.34706 7.87124C2.58099 8.00681 2.68496 8.20533 2.71096 8.23922L4.53041 11.0329L7.92239 16.4921L3.48032 23.5297H3.47512C3.47512 23.5297 3.47512 23.5321 3.47512 23.5345L2.64597 24.7425C2.63818 24.7595 2.62518 24.774 2.61478 24.7885C2.53421 24.912 2.42244 25.0185 2.27688 25.0936C1.84021 25.3139 1.29438 25.1614 1.05785 24.7571C0.821324 24.3504 0.977275 23.8274 1.42174 23.6217C1.60629 23.5369 1.78563 23.5273 1.8818 23.5273H1.8948C1.92079 23.5273 1.94158 23.5273 1.94938 23.5273L3.10864 23.5345L3.68566 22.6533L1.92079 22.6364C1.60109 22.6243 1.27099 22.6896 0.969476 22.8421C0.0701467 23.2948 -0.262552 24.3431 0.223502 25.1783C0.709556 26.0135 1.83502 26.3258 2.73175 25.8755C3.03325 25.723 3.26979 25.5027 3.43354 25.2461H3.43614L4.59279 23.5539L9.01926 16.4921L5.2114 10.3624Z" fill="#4A4E55"/>
<path d="M5.2114 10.3624L3.50632 7.74777C3.34776 7.48874 3.11903 7.26117 2.82012 7.10381C1.93379 6.62931 0.800529 6.9174 0.293682 7.74051C-0.213166 8.56604 0.0935393 9.62156 0.977273 10.0936C1.27618 10.2534 1.60109 10.3236 1.92079 10.3212L3.75324 10.3454L3.16842 9.45209L1.96758 9.43273C1.94938 9.43273 1.92859 9.43273 1.90779 9.43273C1.75184 9.43273 1.59589 9.40125 1.45293 9.32378C1.02146 9.0938 0.873305 8.58057 1.12023 8.18112C1.36716 7.77924 1.92599 7.62673 2.34706 7.87124C2.58099 8.00681 2.68496 8.20533 2.71096 8.23922L4.53041 11.0329L7.92239 16.4921L3.48032 23.5297H3.47512C3.47512 23.5297 3.47512 23.5321 3.47512 23.5345L2.64597 24.7425C2.63818 24.7595 2.62518 24.774 2.61478 24.7885C2.53421 24.912 2.42244 25.0185 2.27688 25.0936C1.84021 25.3139 1.29438 25.1614 1.05785 24.7571C0.821324 24.3504 0.977275 23.8274 1.42174 23.6217C1.60629 23.5369 1.78563 23.5273 1.8818 23.5273H1.8948C1.92079 23.5273 1.94158 23.5273 1.94938 23.5273L3.10864 23.5345L3.68566 22.6533L1.92079 22.6364C1.60109 22.6243 1.27099 22.6896 0.969476 22.8421C0.0701467 23.2948 -0.262552 24.3431 0.223502 25.1783C0.709556 26.0135 1.83502 26.3258 2.73175 25.8755C3.03325 25.723 3.26979 25.5027 3.43354 25.2461H3.43614L4.59279 23.5539L9.01926 16.4921L5.2114 10.3624Z" fill="#4A4E55"/>
<path d="M5.22127 10.3644L5.20026 10.333H5.19763H5.19238L5.21602 10.3644H5.21864H5.22127Z" fill="#4A4E55"/>
<path d="M5.22127 10.3644L5.20026 10.333H5.19763H5.19238L5.21602 10.3644H5.21864H5.22127Z" fill="#4A4E55"/>
<path d="M12.8768 10.3252L17.571 2.61221H17.5684C17.7348 2.35559 17.8335 2.05782 17.8335 1.73826C17.8439 0.789267 17.02 0.00731385 15.9985 5.1127e-05C14.977 -0.00721159 14.14 0.760217 14.1322 1.71163C14.1296 2.03119 14.2232 2.33138 14.3844 2.59042L15.2317 4.08412L15.7931 3.16176L15.2421 2.19824C15.2239 2.1595 15.0914 1.97551 15.0836 1.7189C15.0706 1.2565 15.4942 0.883683 15.9907 0.888525C16.4871 0.893366 16.8874 1.27103 16.8822 1.73342C16.8822 1.88836 16.8328 2.03119 16.7522 2.15466C16.7419 2.17161 12.2868 9.44401 12.2868 9.44401L4.94141 9.45127L5.52103 10.3373L12.8742 10.3301L12.8768 10.3252Z" fill="#4A4E55"/>
<path d="M12.8768 10.3252L17.571 2.61221H17.5684C17.7348 2.35559 17.8335 2.05782 17.8335 1.73826C17.8439 0.789267 17.02 0.00731385 15.9985 5.1127e-05C14.977 -0.00721159 14.14 0.760217 14.1322 1.71163C14.1296 2.03119 14.2232 2.33138 14.3844 2.59042L15.2317 4.08412L15.7931 3.16176L15.2421 2.19824C15.2239 2.1595 15.0914 1.97551 15.0836 1.7189C15.0706 1.2565 15.4942 0.883683 15.9907 0.888525C16.4871 0.893366 16.8874 1.27103 16.8822 1.73342C16.8822 1.88836 16.8328 2.03119 16.7522 2.15466C16.7419 2.17161 12.2868 9.44401 12.2868 9.44401L4.94141 9.45127L5.52103 10.3373L12.8742 10.3301L12.8768 10.3252Z" fill="#4A4E55"/>
<path d="M29.2373 8.22525C29.2373 8.22525 29.2504 8.20567 29.2609 8.18853C29.2636 8.18363 29.2688 8.17629 29.2741 8.16895C29.2636 8.18608 29.2504 8.20322 29.2399 8.2228L29.2373 8.22525Z" fill="#4A4E55"/>
<path d="M29.2373 8.22525C29.2373 8.22525 29.2504 8.20567 29.2609 8.18853C29.2636 8.18363 29.2688 8.17629 29.2741 8.16895C29.2636 8.18608 29.2504 8.20322 29.2399 8.2228L29.2373 8.22525Z" fill="#4A4E55"/>
<path d="M16.1377 5.55109L19.0982 10.3203L26.4124 10.313L26.6125 10.0128L27.0024 9.42455L19.6466 9.43181L16.6861 4.66504L16.1377 5.55109Z" fill="#4A4E55"/>
<path d="M16.1377 5.55109L19.0982 10.3203L26.4124 10.313L26.6125 10.0128L27.0024 9.42455L19.6466 9.43181L16.6861 4.66504L16.1377 5.55109Z" fill="#4A4E55"/>
<path d="M15.8376 27.4594L12.8537 22.6611L5.50314 22.666L4.93911 23.5399L4.92871 23.5544L12.3053 23.5472L15.2866 28.3454L15.8376 27.4594Z" fill="#4A4E55"/>
<path d="M15.8376 27.4594L12.8537 22.6611L5.50314 22.666L4.93911 23.5399L4.92871 23.5544L12.3053 23.5472L15.2866 28.3454L15.8376 27.4594Z" fill="#4A4E55"/>
<path d="M15.9748 29.5531H15.9811L15.9779 29.547L15.9748 29.5439L15.9717 29.5531H15.9748Z" fill="#4A4E55"/>
<path d="M15.9748 29.5531H15.9811L15.9779 29.547L15.9748 29.5439L15.9717 29.5531H15.9748Z" fill="#4A4E55"/>
<path d="M26.7515 22.641L26.8295 22.7451L26.6709 22.5078L26.7515 22.641Z" fill="#4A4E55"/>
<path d="M16.708 30.7939C16.708 30.7939 16.7238 30.8209 16.7369 30.8429C16.7369 30.8429 16.7369 30.8478 16.7395 30.8502H16.7421C16.729 30.8307 16.7185 30.8135 16.708 30.7939Z" fill="#4A4E55"/>
<path d="M26.5684 22.8557L26.4281 22.6475L19.0983 22.6547L14.3729 30.3992H14.3781C14.2143 30.6582 14.1182 30.956 14.1182 31.2756C14.1182 32.227 14.9499 32.9993 15.9688 32.9993C16.9877 32.9993 17.8195 32.2246 17.8195 31.2756C17.8195 30.956 17.7233 30.6558 17.5595 30.3992L16.6862 28.92L16.1352 29.823L16.7018 30.7962C16.7148 30.8132 16.7252 30.8325 16.7356 30.8519H16.733C16.7798 30.9318 16.8551 31.0819 16.8629 31.2756C16.8811 31.738 16.4601 32.1132 15.9636 32.1132C15.4672 32.1132 15.0643 31.738 15.0643 31.2756C15.0643 31.1206 15.1111 30.9778 15.1916 30.8519C15.202 30.8374 15.2098 30.8204 15.2202 30.8035L15.961 29.5495L19.6441 23.5384L27.0259 23.5311L26.9921 23.4827L26.5658 22.8557H26.5684Z" fill="#4A4E55"/>
<path d="M29.3994 24.6559C29.3889 24.6412 29.3757 24.6265 29.3652 24.6094L29.3994 24.6559Z" fill="#4A4E55"/>
<path d="M29.3994 24.6559L29.3652 24.6094C29.3757 24.6265 29.3889 24.6412 29.3994 24.6559Z" fill="#4A4E55"/>
<path d="M28.4909 23.4277H28.4814L28.4877 23.4369C28.4877 23.4369 28.4877 23.4338 28.4909 23.4308V23.4277Z" fill="#4A4E55"/>
<path d="M30.9756 22.8184C30.6741 22.6635 30.3466 22.5981 30.0268 22.6078H30.071H28.2308L28.787 23.4939H29.9905C30.0372 23.5011 30.2712 23.4794 30.5181 23.5956C30.9626 23.8038 31.1107 24.3291 30.8742 24.7334C30.6351 25.1377 30.0866 25.2853 29.6526 25.0626C29.507 24.9876 29.3952 24.8786 29.3173 24.7552C29.3069 24.7406 29.2965 24.7261 29.2861 24.7092L28.4829 23.5253L24.0227 16.4829L27.6823 10.6025L29.2393 8.22763C29.2497 8.20826 29.2627 8.19132 29.2731 8.17195C29.3251 8.0969 29.4264 7.95891 29.6032 7.85723C30.0242 7.61514 30.5831 7.76766 30.83 8.16711C31.0769 8.56656 30.9262 9.07979 30.4973 9.30978C30.3543 9.38725 30.1958 9.41872 30.0398 9.4163C30.019 9.4163 30.0009 9.4163 29.9827 9.4163H30.0113C29.8241 9.4163 28.7688 9.43566 28.7688 9.43566L28.1866 10.329L30.0268 10.3072C30.3466 10.3072 30.6741 10.237 30.9704 10.0796C31.8541 9.60755 32.1634 8.55203 31.6566 7.7265C31.1497 6.90339 30.0138 6.61773 29.1301 7.08738C28.8312 7.24716 28.6025 7.47231 28.4439 7.73376L25.668 12.0551L22.9258 16.4829L26.6713 22.5086L26.8428 22.7628L26.8298 22.7458L28.4933 25.2079H28.4959C28.6597 25.4621 28.8936 25.6848 29.1951 25.8373C30.0892 26.2949 31.2173 25.9923 31.7085 25.157C32.1998 24.3242 31.8723 23.2736 30.9782 22.816L30.9756 22.8184Z" fill="#4A4E55"/>
<path d="M26.6709 22.5078L26.8295 22.7451L26.8424 22.762L26.6709 22.5078Z" fill="#4A4E55"/>
<path d="M5.21564 10.3624L3.51055 7.74777C3.352 7.48874 3.12327 7.26117 2.82436 7.10381C1.93803 6.62931 0.804767 6.9174 0.297919 7.74051C-0.208929 8.56604 0.0977765 9.62156 0.981511 10.0936C1.28042 10.2534 1.60532 10.3236 1.92503 10.3212L3.75748 10.3454L3.17265 9.45209L1.97182 9.43273C1.95362 9.43273 1.93283 9.43273 1.91203 9.43273C1.75608 9.43273 1.60013 9.40125 1.45717 9.32378C1.0257 9.0938 0.877543 8.58056 1.12447 8.18112C1.37139 7.77924 1.93023 7.62673 2.3513 7.87124C2.58523 8.00681 2.6892 8.20533 2.71519 8.23922L4.53465 11.0329L7.92663 16.4921L3.48456 23.5297H3.48716L3.48196 23.5369L2.65281 24.745C2.64501 24.7619 2.63202 24.7764 2.62162 24.791C2.54104 24.9144 2.42928 25.0209 2.28372 25.096C1.84705 25.3163 1.30122 25.1638 1.06469 24.7595C0.828159 24.3528 0.98411 23.8299 1.42858 23.6241C1.61312 23.5394 1.79247 23.5297 1.88864 23.5297C1.91203 23.5297 1.93542 23.5297 1.95622 23.5297L3.11547 23.5369L3.6925 22.6557L1.92763 22.6388C1.60792 22.6267 1.27782 22.692 0.976315 22.8446C0.0769856 23.2973 -0.255717 24.3455 0.230337 25.1807C0.716391 26.0159 1.84185 26.3282 2.73858 25.878C3.04009 25.7254 3.27662 25.5051 3.44037 25.2485H3.44297L4.59963 23.5563L9.02609 16.4945L5.21824 10.3648L5.21564 10.3624ZM4.11877 22.6485H4.09278L4.3319 22.2999L4.11617 22.6485H4.11877Z" fill="#4A4E55"/>
<path d="M3.48047 23.5385L3.48566 23.5332H3.48306L3.48047 23.5359V23.5385Z" fill="#4A4E55"/>
<path d="M4.12072 22.6504L4.33385 22.3018L4.09473 22.6504H4.12072Z" fill="#4A4E55"/>
<path d="M3.4843 23.5332L3.48047 23.5378L3.4843 23.5332Z" fill="#4A4E55"/>
<path d="M13.1088 15.2355C12.6747 15.2355 12.3602 15.0152 12.1444 14.5625L12.1029 14.4778L11.2451 14.7029L11.2893 14.8118C11.4582 15.2307 11.7052 15.5502 12.0223 15.7608C12.342 15.9739 12.7137 16.0804 13.1269 16.0804C13.5402 16.0804 13.9301 15.9424 14.2342 15.6664C14.5383 15.3904 14.6943 15.0539 14.6943 14.6617C14.6943 14.4947 14.6657 14.3349 14.6085 14.1848C14.5513 14.0347 14.4655 13.8895 14.3486 13.7563C14.2342 13.6232 14.0861 13.4997 13.9093 13.3908C13.7378 13.2843 13.4934 13.168 13.1893 13.0446C12.9008 12.9284 12.6955 12.8219 12.5811 12.7299C12.4823 12.65 12.433 12.5604 12.433 12.4611C12.433 12.3425 12.4849 12.2505 12.5993 12.1755C12.7215 12.0932 12.8878 12.052 13.0906 12.052C13.2777 12.052 13.4207 12.0786 13.5116 12.1319C13.6156 12.1924 13.7326 12.2868 13.8625 12.4127L13.9353 12.4829L14.6241 11.9673L14.5539 11.8825C14.3668 11.6574 14.1328 11.4904 13.8521 11.379C13.5766 11.2701 13.3011 11.2168 13.0308 11.2168C12.6175 11.2168 12.264 11.3378 11.9729 11.5751C11.6792 11.8148 11.5284 12.1125 11.5284 12.4539C11.5284 12.5967 11.5544 12.7323 11.609 12.8582C11.661 12.9816 11.7442 13.1075 11.8559 13.231C11.9677 13.3545 12.1003 13.461 12.251 13.5506C12.3966 13.6377 12.6071 13.7321 12.8748 13.8338C13.1269 13.9306 13.3141 14.0154 13.4259 14.088C13.5324 14.1558 13.6234 14.2454 13.6962 14.3519C13.7638 14.4536 13.8001 14.5528 13.8001 14.6521C13.8001 14.8191 13.7378 14.9547 13.6078 15.0636C13.4752 15.175 13.3089 15.2307 13.1036 15.2307L13.1088 15.2355Z" fill="#4A4E55"/>
<path d="M19.0835 13.3832L19.7957 15.9324H20.6612L19.255 10.9453L17.7735 14.2547L16.2841 10.9477L14.8779 15.9324H15.7409L16.4609 13.359L17.7761 16.2713L19.0835 13.3832Z" fill="#4A4E55"/>
<path d="M13.5317 20.2144L12.1359 17.2803H11.208L13.5213 22.156L15.8736 17.2803H14.9379L13.5317 20.2144Z" fill="#4A4E55"/>
<path d="M17.7216 17.2739H16.4688V21.8518H17.7268C18.6209 21.8518 19.3149 21.617 19.7879 21.157C20.261 20.6971 20.5001 20.162 20.5001 19.5617C20.5001 18.9613 20.2688 18.4335 19.8113 17.9711C19.3513 17.5063 18.6469 17.2715 17.719 17.2715L17.7216 17.2739ZM17.3421 18.0704H17.55C18.0127 18.0704 18.3844 18.1164 18.6521 18.2035C18.9094 18.2883 19.1381 18.4602 19.3253 18.7119C19.515 18.9637 19.6086 19.2494 19.6086 19.5617C19.6086 19.8086 19.5488 20.0386 19.4319 20.2444C19.3149 20.4501 19.1537 20.6172 18.9536 20.7406C18.7509 20.8665 18.5377 20.9488 18.3142 20.9852C18.0959 21.0215 17.7684 21.0408 17.3395 21.0433V18.068L17.3421 18.0704Z" fill="#4A4E55"/>
</svg>
