<svg width="16" height="16" viewBox="0 0 16 16" fill="none" xmlns="http://www.w3.org/2000/svg">
<path d="M6.65222 2.66045C6.47902 2.66561 6.31463 2.73799 6.19388 2.86227L1.52722 7.52894C1.40224 7.65396 1.33203 7.82351 1.33203 8.00029C1.33203 8.17707 1.40224 8.34662 1.52722 8.47164L6.19388 13.1383C6.25531 13.2023 6.32889 13.2534 6.41031 13.2886C6.49173 13.3238 6.57935 13.3423 6.66805 13.3432C6.75674 13.3442 6.84472 13.3273 6.92684 13.2938C7.00896 13.2603 7.08356 13.2107 7.14628 13.148C7.209 13.0853 7.25858 13.0107 7.2921 12.9286C7.32563 12.8464 7.34243 12.7585 7.34153 12.6698C7.34063 12.5811 7.32204 12.4935 7.28685 12.412C7.25166 12.3306 7.20057 12.257 7.13659 12.1956L3.60794 8.66696H13.9986C14.0869 8.66821 14.1746 8.65189 14.2566 8.61894C14.3386 8.586 14.4132 8.53709 14.4761 8.47506C14.539 8.41303 14.589 8.33912 14.6231 8.25761C14.6572 8.17611 14.6747 8.08864 14.6747 8.00029C14.6747 7.91194 14.6572 7.82447 14.6231 7.74297C14.589 7.66146 14.539 7.58755 14.4761 7.52552C14.4132 7.46349 14.3386 7.41458 14.2566 7.38164C14.1746 7.34869 14.0869 7.33237 13.9986 7.33362H3.60794L7.13659 3.80498C7.23293 3.71134 7.29872 3.59078 7.32536 3.4591C7.352 3.32742 7.33824 3.19076 7.28588 3.06704C7.23352 2.94331 7.145 2.83829 7.03193 2.76574C6.91886 2.69319 6.7865 2.65649 6.65222 2.66045Z" fill="#4A4E55"/>
</svg>
