<svg width="14" height="14" viewBox="0 0 14 14" fill="none" xmlns="http://www.w3.org/2000/svg">
<path d="M5.82118 2.3274C5.66963 2.33192 5.52579 2.39526 5.42014 2.504L1.3368 6.58733C1.22745 6.69673 1.16602 6.84508 1.16602 6.99977C1.16602 7.15445 1.22745 7.3028 1.3368 7.4122L5.42014 11.4955C5.47389 11.5515 5.53827 11.5962 5.60951 11.627C5.68075 11.6578 5.75742 11.6741 5.83503 11.6749C5.91264 11.6756 5.98962 11.6609 6.06147 11.6316C6.13333 11.6023 6.19861 11.5589 6.25349 11.504C6.30836 11.4491 6.35174 11.3839 6.38108 11.312C6.41041 11.2401 6.42512 11.1632 6.42433 11.0856C6.42354 11.0079 6.40727 10.9313 6.37648 10.86C6.34569 10.7888 6.30099 10.7244 6.24501 10.6707L3.15744 7.5831H12.2492C12.3265 7.58419 12.4033 7.56991 12.475 7.54109C12.5467 7.51226 12.612 7.46947 12.6671 7.41519C12.7221 7.36092 12.7658 7.29624 12.7957 7.22492C12.8255 7.15361 12.8409 7.07707 12.8409 6.99977C12.8409 6.92246 12.8255 6.84592 12.7957 6.77461C12.7658 6.70329 12.7221 6.63861 12.6671 6.58434C12.612 6.53006 12.5467 6.48727 12.475 6.45844C12.4033 6.42962 12.3265 6.41534 12.2492 6.41643H3.15744L6.24501 3.32887C6.3293 3.24693 6.38687 3.14144 6.41018 3.02622C6.43349 2.911 6.42145 2.79143 6.37563 2.68317C6.32982 2.57491 6.25237 2.48302 6.15343 2.41953C6.05449 2.35605 5.93868 2.32394 5.82118 2.3274Z" fill="#4A4E55"/>
</svg>
