<svg width="19" height="19" viewBox="0 0 19 19" fill="none" xmlns="http://www.w3.org/2000/svg">
<path d="M7.60267 3.03939C7.40473 3.04529 7.21686 3.12802 7.07886 3.27005L1.74553 8.60338C1.6027 8.74627 1.52246 8.94004 1.52246 9.14207C1.52246 9.34411 1.6027 9.53787 1.74553 9.68076L7.07886 15.0141C7.14907 15.0872 7.23316 15.1456 7.32621 15.1858C7.41926 15.226 7.5194 15.2473 7.62076 15.2483C7.72213 15.2493 7.82268 15.2301 7.91653 15.1918C8.01038 15.1535 8.09564 15.0969 8.16732 15.0252C8.239 14.9535 8.29565 14.8682 8.33397 14.7744C8.37228 14.6805 8.39149 14.58 8.39046 14.4786C8.38943 14.3773 8.36818 14.2771 8.32796 14.1841C8.28774 14.091 8.22937 14.0069 8.15624 13.9367L4.1235 9.90398H15.9985C16.0995 9.9054 16.1997 9.88675 16.2934 9.8491C16.3871 9.81146 16.4724 9.75556 16.5443 9.68467C16.6162 9.61378 16.6733 9.5293 16.7122 9.43616C16.7512 9.34301 16.7713 9.24304 16.7713 9.14207C16.7713 9.0411 16.7512 8.94114 16.7122 8.84799C16.6733 8.75484 16.6162 8.67036 16.5443 8.59947C16.4724 8.52858 16.3871 8.47269 16.2934 8.43504C16.1997 8.39739 16.0995 8.37874 15.9985 8.38017H4.1235L8.15624 4.34743C8.26634 4.24041 8.34154 4.10263 8.37198 3.95214C8.40243 3.80164 8.3867 3.64547 8.32686 3.50407C8.26702 3.36267 8.16586 3.24265 8.03663 3.15973C7.9074 3.07681 7.75614 3.03487 7.60267 3.03939Z" fill="#4A4E55"/>
</svg>
