<svg width="19" height="19" viewBox="0 0 19 19" fill="none" xmlns="http://www.w3.org/2000/svg">
<path d="M15.2458 7.60267C15.2399 7.40473 15.1571 7.21686 15.0151 7.07886L9.68177 1.74553C9.53888 1.6027 9.34512 1.52246 9.14308 1.52246C8.94105 1.52246 8.74728 1.6027 8.60439 1.74553L3.27106 7.07886C3.19794 7.14907 3.13956 7.23316 3.09934 7.32621C3.05912 7.41926 3.03788 7.5194 3.03685 7.62076C3.03581 7.72213 3.05502 7.82268 3.09333 7.91653C3.13165 8.01038 3.1883 8.09564 3.25998 8.16732C3.33166 8.239 3.41693 8.29565 3.51077 8.33397C3.60462 8.37228 3.70518 8.39149 3.80654 8.39046C3.9079 8.38943 4.00805 8.36818 4.1011 8.32796C4.19415 8.28774 4.27824 8.22937 4.34844 8.15624L8.38118 4.1235V15.9985C8.37975 16.0995 8.3984 16.1997 8.43605 16.2934C8.4737 16.3871 8.52959 16.4724 8.60049 16.5443C8.67138 16.6162 8.75585 16.6733 8.849 16.7122C8.94215 16.7512 9.04211 16.7713 9.14308 16.7713C9.24406 16.7713 9.34402 16.7512 9.43717 16.7122C9.53032 16.6733 9.61479 16.6162 9.68568 16.5443C9.75657 16.4724 9.81247 16.3871 9.85012 16.2934C9.88776 16.1997 9.90642 16.0995 9.90499 15.9985V4.1235L13.9377 8.15624C14.0447 8.26634 14.1825 8.34154 14.333 8.37198C14.4835 8.40243 14.6397 8.3867 14.7811 8.32686C14.9225 8.26702 15.0425 8.16586 15.1254 8.03663C15.2083 7.9074 15.2503 7.75614 15.2458 7.60267Z" fill="#141414"/>
</svg>
