<svg width="24" height="24" viewBox="0 0 24 24" fill="none" xmlns="http://www.w3.org/2000/svg">
<path d="M20.0093 9.97832C20.0016 9.71852 19.893 9.47194 19.7066 9.29082L12.7066 2.29082C12.5191 2.10336 12.2647 1.99805 11.9996 1.99805C11.7344 1.99805 11.4801 2.10336 11.2925 2.29082L4.29253 9.29082C4.19656 9.38297 4.11994 9.49334 4.06715 9.61547C4.01437 9.73759 3.98648 9.86903 3.98513 10.0021C3.98377 10.1351 4.00898 10.2671 4.05927 10.3903C4.10956 10.5134 4.18392 10.6253 4.278 10.7194C4.37208 10.8135 4.48398 10.8879 4.60716 10.9382C4.73034 10.9884 4.86231 11.0136 4.99535 11.0123C5.12839 11.0109 5.25983 10.9831 5.38195 10.9303C5.50408 10.8775 5.61445 10.8009 5.7066 10.7049L10.9996 5.41192V20.9979C10.9977 21.1304 11.0222 21.2619 11.0716 21.3849C11.121 21.5079 11.1944 21.6198 11.2874 21.7142C11.3804 21.8085 11.4913 21.8835 11.6136 21.9346C11.7358 21.9858 11.867 22.0121 11.9996 22.0121C12.1321 22.0121 12.2633 21.9858 12.3856 21.9346C12.5078 21.8835 12.6187 21.8085 12.7117 21.7142C12.8048 21.6198 12.8781 21.5079 12.9275 21.3849C12.977 21.2619 13.0014 21.1304 12.9996 20.9979V5.41192L18.2925 10.7049C18.433 10.8494 18.6138 10.9481 18.8114 10.988C19.0089 11.028 19.2139 11.0074 19.3994 10.9288C19.585 10.8503 19.7426 10.7175 19.8514 10.5479C19.9602 10.3783 20.0153 10.1798 20.0093 9.97832Z" fill="#5C626B"/>
</svg>
