<svg width="24" height="24" viewBox="0 0 24 24" fill="none" xmlns="http://www.w3.org/2000/svg">
<path d="M20.0093 14.0217C20.0016 14.2815 19.893 14.5281 19.7066 14.7092L12.7066 21.7092C12.5191 21.8966 12.2647 22.002 11.9996 22.002C11.7344 22.002 11.4801 21.8966 11.2925 21.7092L4.29253 14.7092C4.19656 14.617 4.11994 14.5067 4.06715 14.3845C4.01437 14.2624 3.98648 14.131 3.98513 13.9979C3.98377 13.8649 4.00898 13.7329 4.05927 13.6097C4.10956 13.4866 4.18392 13.3747 4.278 13.2806C4.37208 13.1865 4.48398 13.1121 4.60716 13.0618C4.73034 13.0116 4.86231 12.9864 4.99535 12.9877C5.12839 12.9891 5.25983 13.0169 5.38195 13.0697C5.50408 13.1225 5.61445 13.1991 5.7066 13.2951L10.9996 18.5881V3.00215C10.9977 2.86963 11.0222 2.73807 11.0716 2.6151C11.121 2.49213 11.1944 2.38021 11.2874 2.28584C11.3804 2.19147 11.4913 2.11654 11.6136 2.06539C11.7358 2.01424 11.867 1.9879 11.9996 1.9879C12.1321 1.9879 12.2633 2.01424 12.3856 2.06539C12.5078 2.11654 12.6187 2.19147 12.7117 2.28584C12.8048 2.38021 12.8781 2.49213 12.9275 2.6151C12.977 2.73807 13.0014 2.86963 12.9996 3.00215V18.5881L18.2925 13.2951C18.433 13.1506 18.6138 13.0519 18.8114 13.012C19.0089 12.972 19.2139 12.9926 19.3994 13.0712C19.585 13.1497 19.7426 13.2825 19.8514 13.4521C19.9602 13.6217 20.0153 13.8202 20.0093 14.0217Z" fill="#5C626B"/>
</svg>
