<svg width="16" height="16" viewBox="0 0 16 16" fill="none" xmlns="http://www.w3.org/2000/svg">
<path d="M9.3272 2.66016C9.19458 2.66019 9.06498 2.69978 8.95498 2.77385C8.84497 2.84793 8.75955 2.95313 8.70965 3.076C8.65974 3.19888 8.64762 3.33384 8.67482 3.46365C8.70202 3.59345 8.76732 3.71219 8.86236 3.80469L12.391 7.33333H2.00038C1.91204 7.33208 1.82433 7.3484 1.74235 7.38135C1.66037 7.41429 1.58576 7.4632 1.52285 7.52523C1.45993 7.58726 1.40998 7.66117 1.37588 7.74268C1.34178 7.82418 1.32422 7.91165 1.32422 8C1.32422 8.08835 1.34178 8.17582 1.37588 8.25732C1.40998 8.33883 1.45993 8.41274 1.52285 8.47477C1.58576 8.5368 1.66037 8.58571 1.74235 8.61865C1.82433 8.6516 1.91204 8.66792 2.00038 8.66667H12.391L8.86236 12.1953C8.79838 12.2567 8.74729 12.3303 8.7121 12.4117C8.67691 12.4932 8.65832 12.5808 8.65742 12.6695C8.65652 12.7582 8.67332 12.8462 8.70685 12.9283C8.74037 13.0104 8.78995 13.085 8.85267 13.1477C8.91539 13.2104 8.98999 13.26 9.07211 13.2935C9.15423 13.3271 9.24221 13.3439 9.3309 13.343C9.4196 13.3421 9.50722 13.3235 9.58864 13.2883C9.67006 13.2531 9.74364 13.202 9.80507 13.138L14.4717 8.47135C14.5967 8.34632 14.6669 8.17678 14.6669 8C14.6669 7.82322 14.5967 7.65367 14.4717 7.52865L9.80507 2.86198C9.74294 2.79812 9.66864 2.74735 9.58657 2.71269C9.50449 2.67802 9.4163 2.66016 9.3272 2.66016Z" fill="#4A4E55"/>
</svg>
