<svg width="14" height="14" viewBox="0 0 14 14" fill="none" xmlns="http://www.w3.org/2000/svg">
<path d="M8.16081 2.32812C8.04477 2.32816 7.93137 2.36279 7.83512 2.42761C7.73886 2.49243 7.66412 2.58448 7.62046 2.69199C7.57679 2.79951 7.56618 2.9176 7.58998 3.03118C7.61378 3.14476 7.67092 3.24865 7.75408 3.32959L10.8416 6.41715H1.74984C1.67255 6.41606 1.5958 6.43034 1.52407 6.45917C1.45234 6.48799 1.38705 6.53079 1.332 6.58506C1.27695 6.63934 1.23324 6.70401 1.2034 6.77533C1.17357 6.84665 1.1582 6.92318 1.1582 7.00049C1.1582 7.07779 1.17357 7.15433 1.2034 7.22565C1.23324 7.29696 1.27695 7.36164 1.332 7.41592C1.38705 7.47019 1.45234 7.51298 1.52407 7.54181C1.5958 7.57063 1.67255 7.58491 1.74984 7.58382H10.8416L7.75408 10.6714C7.69809 10.7251 7.65339 10.7895 7.6226 10.8608C7.59181 10.932 7.57554 11.0087 7.57475 11.0863C7.57396 11.1639 7.58867 11.2409 7.618 11.3127C7.64734 11.3846 7.69072 11.4499 7.74559 11.5047C7.80047 11.5596 7.86575 11.603 7.93761 11.6323C8.00946 11.6617 8.08645 11.6764 8.16405 11.6756C8.24166 11.6748 8.31833 11.6585 8.38957 11.6277C8.46081 11.5969 8.5252 11.5522 8.57895 11.4963L12.6623 7.41292C12.7716 7.30352 12.8331 7.15517 12.8331 7.00049C12.8331 6.8458 12.7716 6.69745 12.6623 6.58805L8.57895 2.50472C8.52459 2.44884 8.45958 2.40442 8.38776 2.37409C8.31594 2.34376 8.23877 2.32813 8.16081 2.32812Z" fill="#4A4E55"/>
</svg>
