<svg width="19" height="19" viewBox="0 0 19 19" fill="none" xmlns="http://www.w3.org/2000/svg">
<path d="M10.6599 3.04102C10.5084 3.04106 10.3603 3.0863 10.2345 3.17095C10.1088 3.25561 10.0112 3.37584 9.95416 3.51627C9.89713 3.6567 9.88327 3.81094 9.91436 3.95929C9.94545 4.10764 10.0201 4.24334 10.1287 4.34905L14.1614 8.38179H2.28643C2.18547 8.38036 2.08523 8.39901 1.99154 8.43666C1.89785 8.47431 1.81257 8.5302 1.74067 8.6011C1.66877 8.67199 1.61168 8.75646 1.57271 8.84961C1.53374 8.94276 1.51367 9.04272 1.51367 9.14369C1.51367 9.24467 1.53374 9.34463 1.57271 9.43778C1.61168 9.53093 1.66877 9.6154 1.74067 9.68629C1.81257 9.75718 1.89785 9.81308 1.99154 9.85073C2.08523 9.88837 2.18547 9.90703 2.28643 9.9056H14.1614L10.1287 13.9383C10.0556 14.0085 9.99719 14.0926 9.95697 14.1857C9.91675 14.2787 9.8955 14.3789 9.89447 14.4802C9.89344 14.5816 9.91264 14.6822 9.95096 14.776C9.98928 14.8699 10.0459 14.9551 10.1176 15.0268C10.1893 15.0985 10.2746 15.1551 10.3684 15.1934C10.4623 15.2318 10.5628 15.251 10.6642 15.2499C10.7655 15.2489 10.8657 15.2277 10.9587 15.1874C11.0518 15.1472 11.1359 15.0888 11.2061 15.0157L16.5394 9.68238C16.6822 9.53949 16.7625 9.34573 16.7625 9.14369C16.7625 8.94166 16.6822 8.74789 16.5394 8.605L11.2061 3.27167C11.1351 3.19868 11.0502 3.14067 10.9564 3.10105C10.8626 3.06144 10.7618 3.04102 10.6599 3.04102Z" fill="#4A4E55"/>
</svg>
