<svg width="41" height="42" viewBox="0 0 41 42" fill="none" xmlns="http://www.w3.org/2000/svg">
<path d="M20.3304 37.611L20.3336 37.6047L20.3304 37.6016L20.3271 37.611H20.3304Z" fill="#141414"/>
<path d="M20.3304 37.611L20.3336 37.6047L20.3304 37.6016L20.3271 37.611H20.3304Z" fill="#141414"/>
<path d="M21.3014 39.2576L21.2646 39.1953C21.2646 39.1953 21.2847 39.2296 21.3014 39.2576Z" fill="#141414"/>
<path d="M21.2646 39.1924L21.3014 39.2547C21.3014 39.2547 21.3014 39.2609 21.3048 39.264H21.3081C21.2914 39.2391 21.278 39.2173 21.2646 39.1924Z" fill="#141414"/>
<path d="M20.3334 37.611L20.3303 37.6045L20.3271 37.611H20.3334Z" fill="#141414"/>
<path d="M37.21 10.4681C37.21 10.4681 37.2267 10.4432 37.24 10.4214C37.2434 10.4152 37.2501 10.4058 37.2568 10.3965C37.2434 10.4183 37.2267 10.4401 37.2133 10.465L37.21 10.4681Z" fill="#141414"/>
<path d="M6.62387 13.1514H6.61719L6.64727 13.1913H6.65061L6.62387 13.1514Z" fill="#141414"/>
<path d="M6.64727 13.1913L6.62053 13.1514H6.61719L6.64393 13.1913H6.64727Z" fill="#141414"/>
<path d="M16.3886 13.1413L22.363 3.32466H22.3597C22.5714 2.99805 22.6971 2.61907 22.6971 2.21235C22.7104 1.00453 21.6617 0.00930861 20.3616 6.50712e-05C19.0616 -0.00917846 17.9964 0.967556 17.9864 2.17846C17.9831 2.58517 18.1022 2.96724 18.3073 3.29693L19.3858 5.19801L20.1003 4.02408L19.399 2.79778C19.3758 2.74848 19.2071 2.51431 19.1972 2.1877C19.1807 1.5992 19.7199 1.1247 20.3517 1.13086C20.9836 1.13702 21.493 1.61768 21.4864 2.20619C21.4864 2.40338 21.4235 2.58517 21.321 2.74231C21.3077 2.76388 15.6377 12.0197 15.6377 12.0197L6.28906 12.029L7.02676 13.1567L16.3853 13.1475L16.3886 13.1413Z" fill="#141414"/>
<path d="M20.5381 7.06521L24.306 13.1351L33.6149 13.1259L33.8697 12.7438L34.3659 11.9951L25.004 12.0043L21.2361 5.9375L20.5381 7.06521Z" fill="#141414"/>
<path d="M20.1575 34.9477L16.3598 28.8408L7.00453 28.847L6.28667 29.9593L6.27344 29.9778L15.6618 29.9685L19.4561 36.0754L20.1575 34.9477Z" fill="#141414"/>
<path d="M6.63267 13.1895L4.46256 9.86179C4.26077 9.5321 3.96966 9.24247 3.58923 9.04219C2.46118 8.43828 1.01885 8.80494 0.373775 9.85254C-0.271301 10.9032 0.11905 12.2466 1.2438 12.8474C1.62423 13.0508 2.03774 13.1402 2.44463 13.1371L4.77683 13.1679L4.03251 12.0309L2.50418 12.0063C2.48102 12.0063 2.45456 12.0063 2.42809 12.0063C2.22961 12.0063 2.03112 11.9662 1.84918 11.8676C1.30004 11.5749 1.11148 10.9217 1.42574 10.4133C1.74001 9.90184 2.45125 9.70773 2.98716 10.0189C3.28489 10.1915 3.41721 10.4441 3.45029 10.4873L5.76595 14.0429L10.083 20.991L4.42948 29.948H4.42286C4.42286 29.948 4.42286 29.9511 4.42286 29.9542L3.36759 31.4917C3.35767 31.5132 3.34112 31.5317 3.32789 31.5502C3.22534 31.7073 3.08309 31.8429 2.89784 31.9384C2.34208 32.2188 1.64739 32.0247 1.34635 31.5101C1.04532 30.9925 1.2438 30.327 1.80948 30.0651C2.04436 29.9572 2.27261 29.9449 2.39501 29.9449H2.41156C2.44464 29.9449 2.4711 29.9449 2.48102 29.9449L3.95643 29.9542L4.69082 28.8326L2.44463 28.811C2.03774 28.7956 1.61761 28.8788 1.23387 29.0729C0.0892772 29.6491 -0.334156 30.9833 0.284456 32.0463C0.903067 33.1093 2.33546 33.5068 3.47675 32.9337C3.86049 32.7395 4.16153 32.4592 4.36994 32.1325H4.37324L5.84534 29.9788L11.479 20.991L6.63267 13.1895Z" fill="#141414"/>
<path d="M6.64614 13.1913L6.6194 13.1514H6.61606H6.60938L6.63946 13.1913H6.6428H6.64614Z" fill="#141414"/>
<path d="M20.1575 34.9477L16.3598 28.8408L7.00453 28.847L6.28667 29.9593L6.27344 29.9778L15.6618 29.9685L19.4561 36.0754L20.1575 34.9477Z" fill="#141414"/>
<path d="M20.5381 7.06521L24.306 13.1351L33.6149 13.1259L33.8697 12.7438L34.3659 11.9951L25.004 12.0043L21.2361 5.9375L20.5381 7.06521Z" fill="#141414"/>
<path d="M16.3886 13.1413L22.363 3.32466H22.3597C22.5714 2.99805 22.6971 2.61907 22.6971 2.21235C22.7104 1.00453 21.6617 0.00930861 20.3616 6.50712e-05C19.0616 -0.00917846 17.9964 0.967556 17.9864 2.17846C17.9831 2.58517 18.1022 2.96724 18.3073 3.29693L19.3858 5.19801L20.1003 4.02408L19.399 2.79778C19.3758 2.74848 19.2071 2.51431 19.1972 2.1877C19.1807 1.5992 19.7199 1.1247 20.3517 1.13086C20.9836 1.13702 21.493 1.61768 21.4864 2.20619C21.4864 2.40338 21.4235 2.58517 21.321 2.74231C21.3077 2.76388 15.6377 12.0197 15.6377 12.0197L6.28906 12.029L7.02676 13.1567L16.3853 13.1475L16.3886 13.1413Z" fill="#141414"/>
<path d="M37.21 10.4681C37.21 10.4681 37.2267 10.4432 37.24 10.4214C37.2434 10.4152 37.2501 10.4058 37.2568 10.3965C37.2434 10.4183 37.2267 10.4401 37.2133 10.465L37.21 10.4681Z" fill="#141414"/>
<path d="M20.331 37.6126H20.3386L20.3347 37.6053L20.331 37.6016L20.3271 37.6126H20.331Z" fill="#141414"/>
<path d="M21.2646 39.1924C21.2646 39.1924 21.2847 39.2267 21.3014 39.2547C21.3014 39.2547 21.3014 39.2609 21.3048 39.264H21.3081C21.2914 39.2391 21.278 39.2173 21.2646 39.1924Z" fill="#141414"/>
<path d="M6.63267 13.1895L4.46256 9.86179C4.26077 9.5321 3.96966 9.24247 3.58923 9.04219C2.46118 8.43828 1.01885 8.80494 0.373775 9.85254C-0.271301 10.9032 0.11905 12.2466 1.2438 12.8474C1.62423 13.0508 2.03774 13.1402 2.44463 13.1371L4.77683 13.1679L4.03251 12.0309L2.50418 12.0063C2.48102 12.0063 2.45456 12.0063 2.42809 12.0063C2.22961 12.0063 2.03112 11.9662 1.84918 11.8676C1.30004 11.5749 1.11148 10.9217 1.42574 10.4133C1.74001 9.90184 2.45125 9.70773 2.98716 10.0189C3.28489 10.1915 3.41721 10.4441 3.45029 10.4873L5.76595 14.0429L10.083 20.991L4.42948 29.948H4.42286C4.42286 29.948 4.42286 29.9511 4.42286 29.9542L3.36759 31.4917C3.35767 31.5132 3.34112 31.5317 3.32789 31.5502C3.22534 31.7073 3.08309 31.8429 2.89784 31.9384C2.34208 32.2188 1.64739 32.0247 1.34635 31.5101C1.04532 30.9925 1.2438 30.327 1.80948 30.0651C2.04436 29.9572 2.27261 29.9449 2.39501 29.9449H2.41156C2.44464 29.9449 2.4711 29.9449 2.48102 29.9449L3.95643 29.9542L4.69082 28.8326L2.44463 28.811C2.03774 28.7956 1.61761 28.8788 1.23387 29.0729C0.0892772 29.6491 -0.334156 30.9833 0.284456 32.0463C0.903067 33.1093 2.33546 33.5068 3.47675 32.9337C3.86049 32.7395 4.16153 32.4592 4.36994 32.1325H4.37324L5.84534 29.9788L11.479 20.991L6.63267 13.1895Z" fill="#141414"/>
<path d="M6.63267 13.1895L4.46256 9.86179C4.26077 9.5321 3.96966 9.24247 3.58923 9.04219C2.46118 8.43828 1.01885 8.80494 0.373775 9.85254C-0.271301 10.9032 0.11905 12.2466 1.2438 12.8474C1.62423 13.0508 2.03774 13.1402 2.44463 13.1371L4.77683 13.1679L4.03251 12.0309L2.50418 12.0063C2.48102 12.0063 2.45456 12.0063 2.42809 12.0063C2.22961 12.0063 2.03112 11.9662 1.84918 11.8676C1.30004 11.5749 1.11148 10.9217 1.42574 10.4133C1.74001 9.90184 2.45125 9.70773 2.98716 10.0189C3.28489 10.1915 3.41721 10.4441 3.45029 10.4873L5.76595 14.0429L10.083 20.991L4.42948 29.948H4.42286C4.42286 29.948 4.42286 29.9511 4.42286 29.9542L3.36759 31.4917C3.35767 31.5132 3.34112 31.5317 3.32789 31.5502C3.22534 31.7073 3.08309 31.8429 2.89784 31.9384C2.34208 32.2188 1.64739 32.0247 1.34635 31.5101C1.04532 30.9925 1.2438 30.327 1.80948 30.0651C2.04436 29.9572 2.27261 29.9449 2.39501 29.9449H2.41156C2.44464 29.9449 2.4711 29.9449 2.48102 29.9449L3.95643 29.9542L4.69082 28.8326L2.44463 28.811C2.03774 28.7956 1.61761 28.8788 1.23387 29.0729C0.0892772 29.6491 -0.334156 30.9833 0.284456 32.0463C0.903067 33.1093 2.33546 33.5068 3.47675 32.9337C3.86049 32.7395 4.16153 32.4592 4.36994 32.1325H4.37324L5.84534 29.9788L11.479 20.991L6.63267 13.1895Z" fill="#141414"/>
<path d="M6.64614 13.1913L6.6194 13.1514H6.61606H6.60938L6.63946 13.1913H6.6428H6.64614Z" fill="#141414"/>
<path d="M6.64614 13.1913L6.6194 13.1514H6.61606H6.60938L6.63946 13.1913H6.6428H6.64614Z" fill="#141414"/>
<path d="M16.3886 13.1413L22.363 3.32466H22.3597C22.5714 2.99805 22.6971 2.61907 22.6971 2.21235C22.7104 1.00453 21.6617 0.00930861 20.3616 6.50712e-05C19.0616 -0.00917846 17.9964 0.967556 17.9864 2.17846C17.9831 2.58517 18.1022 2.96724 18.3073 3.29693L19.3858 5.19801L20.1003 4.02408L19.399 2.79778C19.3758 2.74848 19.2071 2.51431 19.1972 2.1877C19.1807 1.5992 19.7199 1.1247 20.3517 1.13086C20.9836 1.13702 21.493 1.61768 21.4864 2.20619C21.4864 2.40338 21.4235 2.58517 21.321 2.74231C21.3077 2.76388 15.6377 12.0197 15.6377 12.0197L6.28906 12.029L7.02676 13.1567L16.3853 13.1475L16.3886 13.1413Z" fill="#141414"/>
<path d="M16.3886 13.1413L22.363 3.32466H22.3597C22.5714 2.99805 22.6971 2.61907 22.6971 2.21235C22.7104 1.00453 21.6617 0.00930861 20.3616 6.50712e-05C19.0616 -0.00917846 17.9964 0.967556 17.9864 2.17846C17.9831 2.58517 18.1022 2.96724 18.3073 3.29693L19.3858 5.19801L20.1003 4.02408L19.399 2.79778C19.3758 2.74848 19.2071 2.51431 19.1972 2.1877C19.1807 1.5992 19.7199 1.1247 20.3517 1.13086C20.9836 1.13702 21.493 1.61768 21.4864 2.20619C21.4864 2.40338 21.4235 2.58517 21.321 2.74231C21.3077 2.76388 15.6377 12.0197 15.6377 12.0197L6.28906 12.029L7.02676 13.1567L16.3853 13.1475L16.3886 13.1413Z" fill="#141414"/>
<path d="M37.21 10.4681C37.21 10.4681 37.2267 10.4432 37.24 10.4214C37.2434 10.4152 37.2501 10.4058 37.2568 10.3965C37.2434 10.4183 37.2267 10.4401 37.2133 10.465L37.21 10.4681Z" fill="#141414"/>
<path d="M37.21 10.4681C37.21 10.4681 37.2267 10.4432 37.24 10.4214C37.2434 10.4152 37.2501 10.4058 37.2568 10.3965C37.2434 10.4183 37.2267 10.4401 37.2133 10.465L37.21 10.4681Z" fill="#141414"/>
<path d="M20.5381 7.06521L24.306 13.1351L33.6149 13.1259L33.8697 12.7438L34.3659 11.9951L25.004 12.0043L21.2361 5.9375L20.5381 7.06521Z" fill="#141414"/>
<path d="M20.5381 7.06521L24.306 13.1351L33.6149 13.1259L33.8697 12.7438L34.3659 11.9951L25.004 12.0043L21.2361 5.9375L20.5381 7.06521Z" fill="#141414"/>
<path d="M20.1575 34.9477L16.3598 28.8408L7.00453 28.847L6.28667 29.9593L6.27344 29.9778L15.6618 29.9685L19.4561 36.0754L20.1575 34.9477Z" fill="#141414"/>
<path d="M20.1575 34.9477L16.3598 28.8408L7.00453 28.847L6.28667 29.9593L6.27344 29.9778L15.6618 29.9685L19.4561 36.0754L20.1575 34.9477Z" fill="#141414"/>
<path d="M20.331 37.6126H20.3386L20.3347 37.6053L20.331 37.6016L20.3271 37.6126H20.331Z" fill="#141414"/>
<path d="M20.331 37.6126H20.3386L20.3347 37.6053L20.331 37.6016L20.3271 37.6126H20.331Z" fill="#141414"/>
<path d="M34.0469 28.816L34.1461 28.9484L33.9443 28.6465L34.0469 28.816Z" fill="#141414"/>
<path d="M21.2646 39.1924C21.2646 39.1924 21.2847 39.2267 21.3014 39.2547C21.3014 39.2547 21.3014 39.2609 21.3048 39.264H21.3081C21.2914 39.2391 21.278 39.2173 21.2646 39.1924Z" fill="#141414"/>
<path d="M33.8135 29.0902L33.6349 28.8252L24.3061 28.8344L18.292 38.6911H18.2986C18.0902 39.0208 17.9678 39.3998 17.9678 39.8065C17.9678 41.0174 19.0264 42.0003 20.3231 42.0003C21.6199 42.0003 22.6785 41.0143 22.6785 39.8065C22.6785 39.3998 22.5561 39.0177 22.3477 38.6911L21.2362 36.8085L20.5348 37.9578L21.256 39.1964C21.2725 39.218 21.2858 39.2427 21.299 39.2673H21.2957C21.3553 39.369 21.4512 39.56 21.4611 39.8065C21.4843 40.395 20.9484 40.8726 20.3165 40.8726C19.6847 40.8726 19.1719 40.395 19.1719 39.8065C19.1719 39.6093 19.2315 39.4275 19.334 39.2673C19.3472 39.2488 19.3572 39.2273 19.3704 39.2057L20.3132 37.6096L25.0008 29.9591L34.3957 29.9498L34.3527 29.8882L33.8102 29.0902H33.8135Z" fill="#141414"/>
<path d="M37.4175 31.3805C37.4041 31.3618 37.3874 31.3431 37.374 31.3213L37.4175 31.3805Z" fill="#141414"/>
<path d="M37.4175 31.3805L37.374 31.3213C37.3874 31.3431 37.4041 31.3618 37.4175 31.3805Z" fill="#141414"/>
<path d="M36.2604 29.8174H36.249L36.2566 29.8285C36.2566 29.8285 36.2566 29.8248 36.2604 29.8211V29.8174Z" fill="#141414"/>
<path d="M39.4238 29.0416C39.0401 28.8444 38.6233 28.7612 38.2164 28.7736H38.2726H35.9305L36.6384 29.9013H38.1701C38.2296 29.9105 38.5273 29.8828 38.8416 30.0307C39.4073 30.2957 39.5959 30.9643 39.2948 31.4788C38.9905 31.9934 38.2925 32.1814 37.74 31.8979C37.5548 31.8024 37.4125 31.6637 37.3133 31.5066C37.3001 31.4881 37.2868 31.4696 37.2736 31.448L36.2514 29.9413L30.5747 20.9782L35.2325 13.494L37.214 10.4714C37.2273 10.4467 37.2438 10.4251 37.2571 10.4005C37.3232 10.305 37.4522 10.1294 37.6772 9.99994C38.2131 9.69183 38.9243 9.88594 39.2386 10.3943C39.5529 10.9027 39.361 11.5559 38.8152 11.8487C38.6332 11.9472 38.4314 11.9873 38.2329 11.9842C38.2065 11.9842 38.1833 11.9842 38.1602 11.9842H38.1965C37.9584 11.9842 36.6153 12.0089 36.6153 12.0089L35.8743 13.1458L38.2164 13.1181C38.6233 13.1181 39.0401 13.0287 39.4172 12.8285C40.542 12.2276 40.9356 10.8842 40.2906 9.83356C39.6455 8.78596 38.1998 8.42238 37.0751 9.02013C36.6947 9.22349 36.4036 9.51004 36.2018 9.8428L32.6687 15.3427L29.1787 20.9782L33.9457 28.6472L34.164 28.9708L34.1474 28.9492L36.2646 32.0828H36.2679C36.4763 32.4063 36.7741 32.6897 37.1578 32.8839C38.2958 33.4662 39.7315 33.0811 40.3567 32.018C40.9819 30.9581 40.5651 29.6209 39.4272 29.0385L39.4238 29.0416Z" fill="#141414"/>
<path d="M33.9443 28.6465L34.1461 28.9484L34.1627 28.97L33.9443 28.6465Z" fill="#141414"/>
<path d="M6.63717 13.1895L4.46707 9.86179C4.26528 9.5321 3.97417 9.24247 3.59374 9.04219C2.46568 8.43828 1.02336 8.80494 0.37828 9.85254C-0.266796 10.9032 0.123555 12.2466 1.2483 12.8474C1.62873 13.0508 2.04224 13.1402 2.44914 13.1371L4.78134 13.1679L4.03702 12.0309L2.50869 12.0063C2.48553 12.0063 2.45906 12.0063 2.4326 12.0063C2.23411 12.0063 2.03563 11.9662 1.85368 11.8676C1.30454 11.5749 1.11598 10.9217 1.43025 10.4133C1.74452 9.90184 2.45575 9.70773 2.99166 10.0189C3.28939 10.1915 3.42172 10.4441 3.4548 10.4873L5.77046 14.0429L10.0875 20.991L4.43399 29.948H4.43729L4.43068 29.9572L3.3754 31.4947C3.36548 31.5163 3.34894 31.5348 3.33571 31.5533C3.23316 31.7104 3.09091 31.846 2.90566 31.9415C2.3499 32.2219 1.6552 32.0278 1.35416 31.5132C1.05313 30.9956 1.25161 30.3301 1.81729 30.0682C2.05217 29.9603 2.28043 29.948 2.40283 29.948C2.4326 29.948 2.46237 29.948 2.48883 29.948L3.96424 29.9572L4.69864 28.8357L2.45244 28.8141C2.04555 28.7987 1.62543 28.8819 1.24169 29.076C0.0970936 29.6522 -0.326344 30.9863 0.292267 32.0494C0.910878 33.1124 2.34328 33.5098 3.48457 32.9367C3.86831 32.7426 4.16934 32.4622 4.37775 32.1356H4.38106L5.85316 29.9819L11.4868 20.9941L6.64048 13.1925L6.63717 13.1895ZM5.24116 28.8264H5.20808L5.51242 28.3828L5.23785 28.8264H5.24116Z" fill="#141414"/>
<path d="M4.42969 29.9586L4.43597 29.9521H4.43283L4.42969 29.9554V29.9586Z" fill="#141414"/>
<path d="M5.24402 28.8275L5.51528 28.3838L5.21094 28.8275H5.24402Z" fill="#141414"/>
<path d="M4.43352 29.9521L4.42969 29.9568L4.43352 29.9521Z" fill="#141414"/>
<path d="M16.6834 19.3911C16.131 19.3911 15.7307 19.1107 15.4561 18.5346L15.4032 18.4267L14.3115 18.7133L14.3678 18.8519C14.5828 19.385 14.8971 19.7917 15.3006 20.0597C15.7075 20.3309 16.1806 20.4665 16.7066 20.4665C17.2326 20.4665 17.7288 20.2908 18.1158 19.9396C18.5029 19.5883 18.7013 19.16 18.7013 18.6609C18.7013 18.4483 18.665 18.2449 18.5922 18.0539C18.5194 17.8629 18.4102 17.678 18.2614 17.5085C18.1158 17.3391 17.9273 17.1819 17.7023 17.0433C17.484 16.9077 17.173 16.7598 16.786 16.6027C16.4188 16.4548 16.1574 16.3192 16.0119 16.2021C15.8862 16.1004 15.8233 15.9864 15.8233 15.8601C15.8233 15.7091 15.8895 15.592 16.035 15.4965C16.1905 15.3918 16.4022 15.3394 16.6603 15.3394C16.8984 15.3394 17.0804 15.3733 17.1962 15.4411C17.3285 15.5181 17.4773 15.6382 17.6428 15.7985L17.7354 15.8878L18.612 15.2315L18.5227 15.1237C18.2845 14.8371 17.9868 14.6245 17.6295 14.4828C17.2789 14.3442 16.9282 14.2764 16.5842 14.2764C16.0582 14.2764 15.6083 14.4304 15.2378 14.7324C14.864 15.0374 14.6721 15.4164 14.6721 15.8508C14.6721 16.0326 14.7052 16.2052 14.7747 16.3654C14.8408 16.5225 14.9467 16.6828 15.0889 16.8399C15.2312 16.9971 15.3999 17.1326 15.5917 17.2466C15.777 17.3575 16.045 17.4777 16.3857 17.6071C16.7066 17.7304 16.9448 17.8382 17.087 17.9306C17.2226 18.0169 17.3384 18.1309 17.431 18.2665C17.5171 18.3959 17.5634 18.5222 17.5634 18.6486C17.5634 18.8612 17.484 19.0337 17.3186 19.1724C17.1499 19.3141 16.9381 19.385 16.6768 19.385L16.6834 19.3911Z" fill="#141414"/>
<path d="M24.289 17.0334L25.1954 20.2779H26.297L24.5073 13.9307L22.6217 18.1426L20.7262 13.9337L18.9365 20.2779H20.0348L20.9511 17.0026L22.625 20.7093L24.289 17.0334Z" fill="#141414"/>
<path d="M17.2221 25.7276L15.4456 21.9932H14.2646L17.2088 28.1987L20.2026 21.9932H19.0117L17.2221 25.7276Z" fill="#141414"/>
<path d="M22.5545 21.9855H20.96V27.812H22.5611C23.6991 27.812 24.5823 27.5131 25.1844 26.9277C25.7864 26.3423 26.0908 25.6613 26.0908 24.8972C26.0908 24.1331 25.7964 23.4614 25.2141 22.8729C24.6286 22.2813 23.7321 21.9824 22.5511 21.9824L22.5545 21.9855ZM22.0715 22.9992H22.3361C22.925 22.9992 23.398 23.0578 23.7387 23.1687C24.0662 23.2765 24.3574 23.4953 24.5955 23.8157C24.837 24.1362 24.9561 24.4997 24.9561 24.8972C24.9561 25.2115 24.88 25.5042 24.7312 25.7661C24.5823 26.028 24.3772 26.2406 24.1225 26.3978C23.8645 26.558 23.5932 26.6627 23.3087 26.709C23.0308 26.7552 22.614 26.7798 22.0682 26.7829V22.9961L22.0715 22.9992Z" fill="#141414"/>
</svg>
